<svg id="图层_1" data-name="图层 1" xmlns="http://www.w3.org/2000/svg" viewBox="0 0 778.54 76"><defs><style>.cls-1{fill:#fff;}</style></defs><path class="cls-1" d="M60.78,270.13c0-2.12.7-3.18,2.12-3.18h1.59a22.17,22.17,0,0,0,4,1.32v.27a12.92,12.92,0,0,1-.8,1.32,4.37,4.37,0,0,0-.53,2.38c0,1.06,0,2.52-.13,4.37s-.13,3.49-.13,4.9V285c0,.7,1.94,1.06,5.82,1.06a4.92,4.92,0,0,0,1.59-.27c4.94,0,8-.62,9-1.85a2.53,2.53,0,0,1,1.85-.8,6.57,6.57,0,0,1,2.91.8c2.12,1.41,3.36,2.12,3.71,2.12v.53c-.18.17-.66.75-1.46,1.72a4.48,4.48,0,0,0-1.19,2.78c0,.88,0,2.43-.13,4.63s-.18,4.55-.26,7-.14,4.23-.14,5.29v4.77a22.12,22.12,0,0,1-.26,4.24c-.18.71-.58,2.16-1.19,4.37s-2.34,3.92-5.17,5.16a47.15,47.15,0,0,1-4.5,1.85.24.24,0,0,1-.26.27v-.27a.24.24,0,0,1-.27-.26h-.26l.26-.27.27-2.38v-.53a2.28,2.28,0,0,0-1.33-2.38,5.08,5.08,0,0,1-1.45-.4.54.54,0,0,1-.14-.4v-.53h.27c0,.18,1.06.36,3.18.53a2,2,0,0,0,.79.27,2.1,2.1,0,0,0,2.38-2.38q0-2.65.53-8.87t.8-15v-.26q0-7.95-7.42-7.95h-.26q-7.42.27-7.42,14.57a12,12,0,0,0,.27,2.38v1.06q0,15.88-17.21,20.13-18,4.5-18.28,4.5l-.26.26a.23.23,0,0,1-.26-.26.73.73,0,0,1,.26-.53q0-.54,14.56-5,14.57-4.24,14.57-20.13v-.26q-.27-16.16-3.71-16.16c-2.29,0-4.46.05-6.49.14a26.68,26.68,0,0,0-5.16.66,2.33,2.33,0,0,1-1.06.26,2.51,2.51,0,0,1-2.12-1.06l-.26-.26c0-.7,2.91-1.15,8.74-1.32,6.52-.18,9.84-.84,9.93-2s.13-2.52.13-4.11Zm-16.68.79c.17,0,2,.58,5.42,1.72s5.17,2.08,5.17,2.78v2.65a2.91,2.91,0,0,1-1.33,2.52,9.06,9.06,0,0,1-2.11,1.19h-.53a.86.86,0,0,1-.8-.53c-.18-.53-.75-1.85-1.72-4a16.17,16.17,0,0,0-2.78-4.51c-.89-.88-1.32-1.41-1.32-1.58a.24.24,0,0,1-.27-.27Zm33.1,34.43a9,9,0,0,1,.26,2.11V308a5.06,5.06,0,0,1-1.72,2.65,11.88,11.88,0,0,1-2.52,1.86,2.12,2.12,0,0,1-.79.26c-.36,0-.53-.26-.53-.79-.18-.71-.49-2.34-.93-4.9s-1.19-4.37-2.25-5.43L67,299.92a.54.54,0,0,1-.13-.4.8.8,0,0,1,.26-.53h.27a49.85,49.85,0,0,0,4.76,2.52C75.17,303,76.84,304.29,77.2,305.35Z" transform="translate(-31.39 -259.8)"/><path class="cls-1" d="M115.86,294l.26-2.38a9,9,0,0,0-.26-2.12V287.6a7.63,7.63,0,0,1-.27-1.32c-.53,0-1.58.79-3.17,2.38a32.18,32.18,0,0,1-4.77,5.3,27.82,27.82,0,0,1-4.5,3.44h-.53v-.79a30.37,30.37,0,0,0,2.12-2.39l6.35-7.41a9.26,9.26,0,0,1,1.33-2.65l.79-1.06a15,15,0,0,0,.8-1.32l1-2.12,1.06-2.12a.78.78,0,0,1,.27-.53l.26-.26c.36-.36.53-.62.53-.8a19.28,19.28,0,0,0,2.12-5.82v-.27l-.53-1.06a21.83,21.83,0,0,0-1.59-1.85v-.27h.27c0-.17.17-.26.53-.26a6,6,0,0,1,2.65.53,8.26,8.26,0,0,1,2.91,2.38c0,.18.17.44.53.8l1.06,1.06c.88.88,1.32,1.5,1.32,1.85l-1.06.79-.79.53a.78.78,0,0,1-.53.27,2.91,2.91,0,0,0-.53.79l-.27.53a12.6,12.6,0,0,1-1.59,1.86l-1.58,1.85a.78.78,0,0,0-.27.53l.27.79.26.27V282l-.53,1.86v8.21a21.52,21.52,0,0,1,.27,4v4.76l-.27,1.59c-.18,1.42-.53,2.12-1.06,2.12h-2.38l-.27-.26a.78.78,0,0,1-.26-.53Zm-7.94,31.25a39.52,39.52,0,0,0,5.29-10.07l.27-1.06c0-.53.17-.79.53-.79.17,0,.35.18.53.53a2.18,2.18,0,0,1,.26.79v1.33l-.26,1.32v2.91q-.27,1.59-2.65,5c-1.59,2.29-3,3.44-4.24,3.44a.94.94,0,0,1-1.06-1.06A3,3,0,0,1,107.92,325.21Zm11.38-17.75a5.19,5.19,0,0,1,1.59-.26l.79.26L123,308a3.37,3.37,0,0,1,1.32.8l.8.26a2,2,0,0,1-.27.8.78.78,0,0,0-.26.53v1.85l-.27,1.59a7.57,7.57,0,0,0,.27,1.85,7.66,7.66,0,0,1,.26,1.59l.27,1.33v.53a1.09,1.09,0,0,0,.26.79,1,1,0,0,0,.27.79,10,10,0,0,0,4,2.39l2.65,1.06c1.06.35,1.94.61,2.65.79h.53a.73.73,0,0,1,.53-.26l.53-.27h1l.53.53.27.53a11.59,11.59,0,0,0,1.32.53h1.59a1,1,0,0,0,1.06-.79l.27-10.86c.17,0,.53.53,1.06,1.59a18.16,18.16,0,0,0,1.32,2.65c.17.35.44.88.79,1.58l.8,1.33.53.53.53.53,1.06,1.32,1.32,1.86a2.13,2.13,0,0,1,.27.79c0,.17-.27.53-.8,1.06-.35.53-.62.79-.79.79h-1.86l-6.62.53H133.6l-.53.27h-.79a15.3,15.3,0,0,1-4-.8l-2.12-1.06-1.33-.52-.79-.8L123,324.94a2.94,2.94,0,0,1-1.06-1.06,2,2,0,0,1-.27-.79,4.17,4.17,0,0,1-.79-2.92v-5.82a8.49,8.49,0,0,1-.26-2.12,9.84,9.84,0,0,0-2.65-4A1.91,1.91,0,0,1,119.3,307.46Zm4-7.68,2.39-2.11a5.77,5.77,0,0,0,1.59-1.86l2.11-2.38,1.06-1.32a4,4,0,0,0,1.06-1.86l-.26-1.59a.7.7,0,0,1,.79-.79,3.62,3.62,0,0,1,2.12,1.32,3.7,3.7,0,0,1,1.33,2.39,1.09,1.09,0,0,1-.27.79,2.91,2.91,0,0,1-.79.53l-1.06.79-1.06.53a16.16,16.16,0,0,1-4.24,4,50.49,50.49,0,0,1-5.3,3.7l-.26-.53v-.26A1.57,1.57,0,0,1,123.27,299.78Zm12.19-.79a7.07,7.07,0,0,1,2.11-.26,4.55,4.55,0,0,0,.8-2.39v-5.29l-.53-4.24v-4.24a4.28,4.28,0,0,1-.27-1.32c-.17-.35-.35-.53-.53-.53a18.74,18.74,0,0,0-3.44.26,7.4,7.4,0,0,0-2.12,2.92,14.76,14.76,0,0,1-2.91,2.65l-3.18,2.64c-.7.53-1.06.89-1.06,1.06h-.79v-.53a2.28,2.28,0,0,1,.79-1.59,18.7,18.7,0,0,0,2.39-2.91c.35-.7.88-1.68,1.59-2.91a11,11,0,0,1,.79-1.33l.26-.53.8-1.05a.8.8,0,0,0,.26-.53,4.28,4.28,0,0,0,.8-1.06l.26-.53.8-2.12.79-1.33v-.26a3.55,3.55,0,0,1,.8-2.12,3.15,3.15,0,0,0,.79-1.59.8.8,0,0,0-.26-.53l-.27-.26c-.35,0-.53-.09-.53-.27-.18,0-.26-.08-.26-.26,0-.35.26-.53.79-.53l.27.26.53.27a1.07,1.07,0,0,0,.79-.27,2.1,2.1,0,0,1,.8-.26,2.82,2.82,0,0,1,1,.53l.8.79a4.28,4.28,0,0,1,1.06.8,3.25,3.25,0,0,0,.79.53l.53.53a1.79,1.79,0,0,1-.53,1.32l-1.32.79a.24.24,0,0,0-.27.27,3.08,3.08,0,0,0-1.85,2.65V277l.26.27,1.59.26,5.3-.53h.26l.27-.26.53.26h.79l1.06-.26a11.17,11.17,0,0,0,2.12-.27h1.33l1.85-.26.53-.8.26-.26a1.54,1.54,0,0,1,1.06-.53c.18,0,.44.18.8.53l.53,1.06c.17,0,.44.17.79.53l1.85,2.91.53.53v.26l1.59,2.12a1.52,1.52,0,0,1-.53,1.06.78.78,0,0,0-.53.27l-.26.26a4.27,4.27,0,0,0-1.85.53h-.27l-.53.53h-.53a6.26,6.26,0,0,0-2.65.8l-1.32.53a4.53,4.53,0,0,1-1.32.26.76.76,0,0,1-.53-.26l-.27-.27V285a1.07,1.07,0,0,0,.27-.8l.79-1.32a.74.74,0,0,1,.27-.53,5.19,5.19,0,0,0,.26-1.59c0-.17-.18-.35-.53-.53a4.6,4.6,0,0,0-1.32-.27h-1.86c-1.24,0-2.82.1-4.76.27-.89.18-1.68.36-2.39.53-.71,0-1.06.09-1.06.26a7.3,7.3,0,0,0,2.12,1.86l.53.26,1.06.8a8.56,8.56,0,0,1,1.06.79l.53.53a2,2,0,0,1-.27.8l-.26.53-.53.52a2.1,2.1,0,0,1-.26.8,7.84,7.84,0,0,1-.27,1.59v1.59a12.31,12.31,0,0,0,.27,2.91v1.32a.8.8,0,0,1,.26.53,16.38,16.38,0,0,1-.26,3.45,6.61,6.61,0,0,1-.8,3.44l-.53.53-.26.26-1.06,1.06a2,2,0,0,1-.8.27,2.22,2.22,0,0,1-1.85-1.33l-.53-1.06a3.7,3.7,0,0,1-.79-1.06.8.8,0,0,0-.53-.26l-1.59-.8-.27-.26C134.13,299.52,134.57,299.17,135.46,299Zm-5.83,16.15V311.7l-.79-3.71a36.39,36.39,0,0,1-.27-4c.17,0,.35.18.53.53a2.6,2.6,0,0,1,.53,1.33l1.06,1.85.79,1.59c.53,1.06.89,1.59,1.06,1.59a3.65,3.65,0,0,0,2.39-1.33l2.11-2.12.53-.26.27.26a1.07,1.07,0,0,1-.27.8l-1.85,2.91a13.13,13.13,0,0,0-1.59,3.18l-.26,1.32a.78.78,0,0,0-.27.53c-.35.89-.79,1.33-1.32,1.33a3.3,3.3,0,0,1-1.86-.8A2.28,2.28,0,0,1,129.63,315.14Zm14.56-9.79v-.27c0-.17.18-.26.53-.26a13.14,13.14,0,0,1,2.65,1.06l2.39,1.32a8.78,8.78,0,0,0,1.32.53h.26l.8.53a24.22,24.22,0,0,1,2.38,1.32,12.56,12.56,0,0,1,2.12,1.86l2.38,2.11a6.49,6.49,0,0,1-1.06,3.71,3.22,3.22,0,0,1-2.91,1.86c-.88,0-1.77-.88-2.65-2.65l-1.06-2.12c-.35-.88-.62-1.5-.79-1.85l-1.32-1.33a2.87,2.87,0,0,1-1.06-1.06l-.8-1.32a9.45,9.45,0,0,0-1.85-1.86l-.8-.79A.84.84,0,0,1,144.19,305.35Zm2.39-17.48c1.59,0,2.38.71,2.38,2.12l.27-.27a.78.78,0,0,1,.53.27l.53.26.79.27c.35.35.62.53.79.53a4.72,4.72,0,0,1,2.39,1.59,3.92,3.92,0,0,1,1.32.79c.88.53,1.33,1.06,1.33,1.59a4.28,4.28,0,0,1-1.06,2.65,3.06,3.06,0,0,1-2.39,1.32c-.53,0-1-.35-1.32-1.06a2.76,2.76,0,0,1-.53-.79l-1.06-2.92-1.06-1.85a18.42,18.42,0,0,0-2.91-3.71Z" transform="translate(-31.39 -259.8)"/><path class="cls-1" d="M211.45,323.35a8.29,8.29,0,0,0,3.18-1.06h.53a.78.78,0,0,1,.53-.26c.35-.18.53-.35.53-.53a4.89,4.89,0,0,1,.53-1.33l1.06-2.11a12.39,12.39,0,0,0,1.06-4.24V313a7,7,0,0,1,.53-1.58l.79-2.12v-2.39c.18-1.41.53-2.29,1.06-2.64v-1.06a35.3,35.3,0,0,1,.27-3.71V295l.26-.27v-2.64a.74.74,0,0,1,.27-.53l.26-1.33v-.79c0-1.76-.79-2.65-2.38-2.65a2.16,2.16,0,0,0-.8.26h-1.32c-1.77.18-3.27.36-4.5.53a20.56,20.56,0,0,0-4.24.8l-.53-.27h-.26a1.58,1.58,0,0,0-1.33.8l-.53,1.06-.26.53a22.7,22.7,0,0,1-2.91,4.5,37.45,37.45,0,0,1-5.83,6.88v3.45a.8.8,0,0,1-.26.53v.52a.78.78,0,0,0-.27.53l.27,4.77-.27,1.32a2.8,2.8,0,0,0,.53,1.59v4l-.26.26a4.28,4.28,0,0,0-.27,1.32l-.26.27-1.06,1.32q-1.86,1.86-3.18,1.86c-1.24,0-1.85-.44-1.85-1.33a2,2,0,0,1,.26-.79V321q0-3.71-2.38-3.71a2,2,0,0,0-.8.27l-2.12.26a7,7,0,0,0-1.58.27h-3.18a8.06,8.06,0,0,0-1.59.53,1.22,1.22,0,0,0-.8,1.32v.79q0,4.51-3.44,4.51c-.18,0-.35-.18-.53-.53a3.25,3.25,0,0,1-.53-.8,6.17,6.17,0,0,1-.53-2.12l.53-1.85v-2.65l.27-3.44-.27-11.12a9.76,9.76,0,0,1,.27-2.39l-.27-1.32v-1.85c-.18-1.77-.26-2.92-.26-3.45v-4.5a10.45,10.45,0,0,0-1.06-4.23l-.27-.53-.53-.53v-.27a2.83,2.83,0,0,1,.53-1.06,4.07,4.07,0,0,1,2.12-1.06l.53.53q2.39,0,4.5-2.64l3.18-4.51c.7,0,1.23-.61,1.59-1.85l.26-1.06v-.79a2.86,2.86,0,0,0-.52-1.59l-.53-.8v-.26l.26-.53a15.61,15.61,0,0,0,2.38-.27l1.06-.53c1.94,0,2.92.45,2.92,1.33.17.18.43.44.79.79a2.76,2.76,0,0,0,.79.53l.53.53a7.65,7.65,0,0,1,1.06.8l.27.26a.74.74,0,0,1-.27.53,2.76,2.76,0,0,1-.79.53l-.27.26a.24.24,0,0,0-.26.27l-.53.53-1.59,1.06L188.15,276l-.53.53-1.06,1.06a17.52,17.52,0,0,1-3.17,2.65,10.89,10.89,0,0,0-1.59,1.32l-1.06,1.06a5.14,5.14,0,0,1-2.65,1.06v1.06c0,.36.09.53.26.53h4.51a7.23,7.23,0,0,1,2.91-.79l1.59-.27a3.85,3.85,0,0,0,1.59-.26c.17,0,.53-.27,1.06-.8l1.05-1.32,1.33-1.33a2.88,2.88,0,0,1,1.59-.53l3.44,2.65.26.27a.78.78,0,0,0,.27.53c.35.35.53.62.53.79a4.28,4.28,0,0,1-.27,1.33,1.09,1.09,0,0,0-.26.79l-.27.53a2.83,2.83,0,0,1-.52.79.78.78,0,0,1-.27.53,4.9,4.9,0,0,0-.26,1.59l.26,1.86a6.68,6.68,0,0,0,.27,2.11,17.54,17.54,0,0,1-.27,2.65v1.33a4.9,4.9,0,0,0-.26,1.59h.53l.79-.53a.78.78,0,0,0,.53-.27l.53-.53v-.26l.26-.27a.74.74,0,0,0,.27-.53,3.26,3.26,0,0,1,.79-1.85l.27-.27.26-.53a2,2,0,0,0,.27-.79l.26-.79a.78.78,0,0,0,.27-.53l.53-1.33.53-.53.26-.53.27-.26a32.83,32.83,0,0,0,2.91-8.21c.17-.53.35-1.15.53-1.85l.79-2.12a16.21,16.21,0,0,0,.8-4.51,11.08,11.08,0,0,0-.27-2.11c-.35-.89-.79-1.33-1.32-1.33,0-.53.53-.79,1.59-.79l.53-.53h.26l.8-.27.79-.53h.53c2.29,0,4.24,1.24,5.83,3.71v.27l.26.26q0,.8-1.32,1.32c-.71.36-1.06.8-1.06,1.33l.26.53c0,.88-.62,2.21-1.85,4l-.8,1.06c-.35.36-.53.62-.53.79a3.22,3.22,0,0,0-.79,1.59l-.26.27-.8,1.06a1,1,0,0,0-.26.79c0,1.24.43,1.86,1.32,1.86a15.61,15.61,0,0,0,2.38-.27l2.39-.26a15.61,15.61,0,0,1,2.38-.27,8.5,8.5,0,0,1,1.32-.26h.53a2.6,2.6,0,0,0,1.33-.53l1.06-1.59,1.85-2.12a2.56,2.56,0,0,1,1.86.79l.79,1.06a2.83,2.83,0,0,0,.53.8l1.85,1.06a.24.24,0,0,1,.27.26,1.57,1.57,0,0,1,.79,1.33,2.26,2.26,0,0,1-.79,1.58l-1.59,1.33a11.26,11.26,0,0,1-.27,2.12l-.26.79v.53a7.65,7.65,0,0,0-.53,2.91v2.65l-.53,3.18-.26,3.44-.8,4.24-.79,2.38a5.77,5.77,0,0,0-.27,1.85v.8a1.07,1.07,0,0,1-.26.79,7.71,7.71,0,0,1-.27,1.86l-1.32,4a6.32,6.32,0,0,1-.8,2.38,4.62,4.62,0,0,1-4.5,2.65,2.61,2.61,0,0,1-1.06,1.33l-.26.26h-.27a2.76,2.76,0,0,0-.79.53.76.76,0,0,0-.53.26l-.53.53a2.35,2.35,0,0,1-1.06.27c-.71,0-1.33-.71-1.85-2.12-.71-1.24-1.24-1.85-1.59-1.85l-.27-.27h-.53a1.08,1.08,0,0,1-.53-1.06Zm-33.36-28.07v1.86a3.85,3.85,0,0,0,.26,1.59c.18,1,.62,1.58,1.33,1.58a25.18,25.18,0,0,0,5-.53,4.51,4.51,0,0,0,2.38-1.32l.53-.79a.24.24,0,0,1,.27-.27.78.78,0,0,1,.53.27.23.23,0,0,1,.26.26l.27.27.26.26a2.3,2.3,0,0,0,1.59.8c.35,0,.53-.09.53-.27a16.43,16.43,0,0,0-.27-2.65v-.53l-.26-6.62c-.18-2.12-.79-3.17-1.85-3.17l-2.65.53h-1.86a2.12,2.12,0,0,1-.79.26,11.56,11.56,0,0,0-2.65.26c-2.29.53-3.44,1.42-3.44,2.65A50.2,50.2,0,0,1,178.09,295.28Zm.26,20.66h.8a6,6,0,0,0,2.65-.53l6.09-.27.79-.26a2,2,0,0,1,.8-.27c.88-.17,1.41-.53,1.58-1.06v-.79l.27-1.32v-1.33l.26-5.82c0-1.59-.26-2.39-.79-2.39a1.91,1.91,0,0,1-.79-.26c-.36,0-.53-.09-.53-.27-.18.36-1,.62-2.39.8a11.72,11.72,0,0,0-1.85.26l-4,.27a7.65,7.65,0,0,1-1.86.26c-1.06.18-1.59.45-1.59.8v1.06l.27.53v.53l.26,4.5-.26,2.38a6,6,0,0,1-.53,2.65A3,3,0,0,0,178.35,315.94Zm28.87-17.48h.53l.53.27,2.65,2.11,1.58,1.06a.24.24,0,0,0,.27.27l.26.26a5.41,5.41,0,0,1,2.39,3.18,7.65,7.65,0,0,1-.8,1.06l-1.85,1.59a1.56,1.56,0,0,1-1.06.53h-.27c-.17,0-.52-.27-1-.8l-.53-.53v-.79l-.53-1.32-.53-1.59-.8-1.59a4.64,4.64,0,0,0-.79-1.86l-.53-.79a.74.74,0,0,1-.27-.53C206.42,298.82,206.69,298.64,207.22,298.46Zm-.27-13h.27v-.27A.24.24,0,0,0,207,285.49Zm3.18-9.27v.26a.24.24,0,0,0,.27-.26Zm.27,47.93c-.18,0-.27.08-.27.26h.27Zm1.32,1.32.26-.53h-.26Zm8.74-7.68a.24.24,0,0,0,.26.27v-.53A.23.23,0,0,0,220.46,317.79Zm2.65-13.5c0,.35.08.53.26.53V303c-.18,0-.26.18-.26.53Zm1.45,1.32c-.09,0-.13.09-.13.27v.26a.24.24,0,0,0,.27-.26C224.7,305.7,224.65,305.61,224.56,305.61Z" transform="translate(-31.39 -259.8)"/><path class="cls-1" d="M243,274.36c-.36,0-.53-.08-.53-.26v-.53a.44.44,0,0,1,.26-.4q.27-.14,8.35-.4t9.66-1.85a2.28,2.28,0,0,1,1.59-.79,3.88,3.88,0,0,1,2.12,1.06l2.12,2.11v.27c-.36,0-2,0-4.77.13s-4.33,5.26-4.5,15.49v1.86q0,12.18,3.18,12.18a2.06,2.06,0,0,0,.79-.27q4.23-1.84,4.77-2.12a.24.24,0,0,1,.26.27q-.27.52-7.15,5.56t-9.27,6.49a24.83,24.83,0,0,0-3.7,2.65c-.89.79-1.42,1.28-1.59,1.45l-.27.27H244c-.18-.18-1-1.15-2.39-2.92a16.29,16.29,0,0,1-2.11-2.91l-.27-.26.27-.27,2.38-.53a27.16,27.16,0,0,0,4.5-1.59c1.59-.7,2.78-1.19,3.58-1.45s1.27-6,1.45-17.08v-.8q0-15.62-4-15.62C244.64,274.28,243.14,274.36,243,274.36Zm35.48,14h-.26c0-.18.17-.27.53-.27a34.38,34.38,0,0,1,3.31.93,22.1,22.1,0,0,0,3.57.93l.27.26v.27a7.92,7.92,0,0,0-1.06,1.32c-.36.53-.53,2.48-.53,5.83a8.48,8.48,0,0,0-.27,2.11q0,4.77.53,11.66V312q0,8.47-14.3,13.24-15.09,5.3-15.36,5.29a.24.24,0,0,1-.26.27V330a.24.24,0,0,1-.27-.26l.27-.27q.25,0,12.45-5,11.91-5,11.91-13.5v-.53c-.18-5.83-.26-9.62-.26-11.39v-3.71c0-.53-.05-1.28-.13-2.25a24.69,24.69,0,0,1-.14-2.51ZM274,272.51a29.09,29.09,0,0,0-4,.26h-1.06a2,2,0,0,1-1.85-.79q0-.8,13.24-1.06,14-.26,15.89-2.12a2.26,2.26,0,0,1,1.58-.79,3,3,0,0,1,2.12,1.06c1.41,1.23,2.21,1.94,2.39,2.12v.26a.24.24,0,0,1-.27.27q-.27.25-10.33.26-8.47.27-8.47.53h.53a20,20,0,0,0,2.38.53l.27.26-.27.27-1.06,1.06q-.79.8-2,2.25t-3.31,3.57c-.53.53-.8.89-.8,1.06,0,.71,1.06,1.06,3.18,1.06h1.32q6.09-.26,7.42-1.85a1.79,1.79,0,0,1,1.32-.53,6.22,6.22,0,0,1,2.65.79,11.43,11.43,0,0,0,3.18,1.59v.27a12.82,12.82,0,0,1-1.06,1.59c-.53.7-.79,2.29-.79,4.76a3,3,0,0,0,.26,1.33q0,5,.27,9v6.36a7.76,7.76,0,0,1-2.39,4.76,16.9,16.9,0,0,1-2.65,2.38.84.84,0,0,1-.79.53v-.26a1.76,1.76,0,0,1-.79-.13q-.27-.14-.27-.66V297.93q-.27-13.77-8.21-13.77h-.26q-8.49.27-8.48,11.65t.27,13.24v.53a4.58,4.58,0,0,1-1.59,3.18,16,16,0,0,0-2.12,2c-.18.26-.36.39-.53.39a1.76,1.76,0,0,1-.79-.13q-.27-.13-.27-.66V301.11q0-12.45-.26-16.29c-.18-2.55-.27-4-.27-4.37a.24.24,0,0,1,.27-.26h.26a21,21,0,0,0,2.91,1.59,8.57,8.57,0,0,0,3.71,1.32l.27-.26c.7,0,1.41-.84,2.11-2.52a26.85,26.85,0,0,0,1.59-5c.35-1.68.53-2.6.53-2.78Zm25.42,48.19v3.18a4.46,4.46,0,0,1-1.45,2.65c-.8.7-1.55,1.32-2.25,1.85a2.35,2.35,0,0,1-1.06.27c-.36,0-.53-.27-.53-.8-.36-.7-1.37-2.6-3.05-5.69s-3.31-5.07-4.9-6a21.77,21.77,0,0,1-2.65-1.59h-.26a.23.23,0,0,1,.26-.26v-.8h.27c.17.18,2.78,1.15,7.81,2.92S299.19,319.65,299.37,320.7Z" transform="translate(-31.39 -259.8)"/><path class="cls-1" d="M318.17,323.62v-6.36a3.67,3.67,0,0,1,.27-1.59,1.06,1.06,0,0,1,.26-.79l-.26-1.33V303q-.27-2.91-.27-4.23c0-1.24-.09-1.86-.26-1.86a22.71,22.71,0,0,1,.26-2.65v-5.56l-.26-1.32v-2.65a2,2,0,0,1-.27-1.32V281a9.55,9.55,0,0,0-.26-2.64,2.08,2.08,0,0,0-.27-1.33,12.76,12.76,0,0,0-.26-2.38v-2.39a.76.76,0,0,0-.26-.52l-.53-.8a1,1,0,0,1-.27-.79v-.53c.17-.36.35-.53.53-.53h1.32a27.74,27.74,0,0,1,2.92,1.32,17.8,17.8,0,0,0,3.17,1.33,2.16,2.16,0,0,1,.8.26l.26.26h.27a1,1,0,0,0,.79.27,3.63,3.63,0,0,0,1.59.26h2.12a6.49,6.49,0,0,0,2.91-.53H337L338,272h1.33l.26-.26V272a.76.76,0,0,0,.53.26l.27-.26h2.91l3.18-.26q3.18-.27,5.82-.53c.18,0,.44-.18.8-.53l1.06-.8,1.59-1.59a1.06,1.06,0,0,0,.79-.26,2,2,0,0,1,.27-.8l.26-.53a.78.78,0,0,1,.27-.53,2.88,2.88,0,0,1,2.11,1.33c.36.71.71,1.06,1.06,1.06h.27a.8.8,0,0,1,.53.26.73.73,0,0,0,.26.53l.53.8h.53a4.14,4.14,0,0,1,2.12,3.7l-.26.27-.53.53a2.13,2.13,0,0,0-1.06,1.59V281c0,.53-.09.8-.27.8a7.57,7.57,0,0,0,.27,1.85c0,.71.08,1.06.26,1.06v.8a.73.73,0,0,0-.26.53l-.53.26v.27a6,6,0,0,1,.79,2.38v1.85l.53,2.65a14.1,14.1,0,0,1,.27,2.65l-.53,1.32.53.53a2.23,2.23,0,0,1-.27.8l-.26.79c0,.18.17.26.53.26l.26,5v10.59a18.57,18.57,0,0,0-.26,1.85v1.06a11.32,11.32,0,0,1-.53,4,7.44,7.44,0,0,1-3.18,2.92l-.53.53c-.18,0-.27.08-.27.26a.78.78,0,0,0-.53.27l-.53.53-.52.26a1.7,1.7,0,0,1-1.59-1.06,4.17,4.17,0,0,1-.53-1.85v-1.33a1.89,1.89,0,0,0-1.33-1.85c-1.41.18-3.09.36-5,.53l-5,.26H342a16.43,16.43,0,0,1-2.65.27l-.53.26-3.44-.26a8.17,8.17,0,0,0-1.86.26,7.57,7.57,0,0,1-1.85.27h-1.33l-1.05.26-2.39.27-2.12.53c-.7.17-1.06.35-1.06.53v1.32a3.25,3.25,0,0,1-.52.8l-1.06,1.05-.27.27-.53,1.06a2.31,2.31,0,0,1-1.85,1.06,6.09,6.09,0,0,1-1.59-4.5Zm4.77-17.74c-.18,0-.26.17-.26.52h.26a.82.82,0,0,1,.27.53Zm1.06,13a2.83,2.83,0,0,0,.53.8.76.76,0,0,0,.53.26l1.06.26h.53a2.33,2.33,0,0,0,1.06-.26h4a1.09,1.09,0,0,0,.79-.26h.8a13.32,13.32,0,0,0,2.65-.27l5-.53h2.38a5.19,5.19,0,0,0,1.59-.26l4-.53a4.28,4.28,0,0,1,1.33-.27l4.76-.53c.71,0,1.06-.53,1.06-1.59v-8.21l.27-.26v-.53l-.27-.27-.26-.26a2,2,0,0,1,.26-.79v-3.71a2,2,0,0,0,.27-.8l-.27-1.58.27-1.33-.27-1.32.27-.27-.27-.26v-2.39l.27-.26-.53-2.91a21.18,21.18,0,0,1-.27-2.65v-1.32l-.26-2.65v-2.12l-.27-.53v-4.5a8.53,8.53,0,0,0-.26-1.33,2,2,0,0,1-.27-.79.76.76,0,0,0-.53-.27h-1.06a.83.83,0,0,1-.79-.53,2.08,2.08,0,0,1-1.33.27,9.64,9.64,0,0,1-2.38.26h-.79l-.53-.26-.27.26H342l-.27.27h-1.32l-.27-.27a.24.24,0,0,0-.26.27H337.5l-.53.26h-1.58a2.6,2.6,0,0,0-1.86.53H329.3c0,.18-.36.27-1.06.27h-1.86l-.53.26a4.24,4.24,0,0,1-1.06.27h-.53c-.17,0-.35.26-.53.79l-.26.53.26,8.48c0,1.05.71,1.58,2.12,1.58,1.77,0,3.88-.08,6.36-.26l6.09-.79h2.91a11.53,11.53,0,0,0,3.71-1.06l1.59-1.33a.76.76,0,0,1,.53-.26,1.52,1.52,0,0,1,1.06.53l.53.26.26.27,1.33.79a3.4,3.4,0,0,1,1.32.8c1.23.88,1.85,1.67,1.85,2.38a.8.8,0,0,0-.53.26h-.79a10.49,10.49,0,0,1-1.85-.26H347a1.07,1.07,0,0,0-.8-.27,2.35,2.35,0,0,0-1.06.27h-2.11a.76.76,0,0,1-.53.26H341a11,11,0,0,1-1.86.27c-1.23,0-2.74.09-4.5.26h-7.94l-.27.27a2.6,2.6,0,0,0-2.38,1.32,6.79,6.79,0,0,0-.27,2.12,11,11,0,0,1,.27,2.65V299l-.27,1.06v1.32l.27.8a5.19,5.19,0,0,0,.26,1.59c.18.53.44.79.8.79h5a1.09,1.09,0,0,1,.79-.26h.53l.53-.27a26,26,0,0,1,5-.53l2.65-.26h2.65a.78.78,0,0,0,.53-.27l1.06-.26a11.17,11.17,0,0,1,2.12-.27,1.52,1.52,0,0,0,1.06-.53l1.32-1.32h.27a3.06,3.06,0,0,1,2.64,1.85l.8.53h.26c.53.36.8.71.8,1.06s-.27.71-.8,1.06a2.8,2.8,0,0,1-1.59.53H350a9.56,9.56,0,0,0-2.38.27h-1.33a11.72,11.72,0,0,1-1.85.26l-1.85-.26-.53.26h-.53a1.56,1.56,0,0,1-1.06-.26l-.53.26h-.27c-.35,0-.53.09-.53.26q-3.18.27-5.56.53-2.91.27-4.23.27h-4l-.53.26a.7.7,0,0,0-.79.8ZM358.16,304h.26v-.26A.23.23,0,0,0,358.16,304Zm2.38,2.91h.53v-.26h-.53Zm1.59-4.5h.27v-.26h-.27Z" transform="translate(-31.39 -259.8)"/><path class="cls-1" d="M384.64,320.44h1.59l.53-.27h.79a2.27,2.27,0,0,0,1.06-.26c1.06-.35,1.59-1,1.59-1.85v-1.33a2.35,2.35,0,0,1,.27-1.06v-1.06a1.07,1.07,0,0,0-.27-.79v-9c-.17-.53-.44-.8-.79-.8a4.57,4.57,0,0,0-2.65,1.33,8.16,8.16,0,0,0-2.12,2.38,1.54,1.54,0,0,0-1.06.53l-.53.26-.26.53h-.27c-1.06,1.06-1.85,1.59-2.38,1.59l-.27-.26c-1.23-1.24-1.85-2.21-1.85-2.92,0-.17.27-.43.8-.79l.79-.27a3,3,0,0,0,.79-.52l.53-.53a.78.78,0,0,0,.27-.53,2.83,2.83,0,0,1,.53-.8.8.8,0,0,1,.26-.53h1.06a8.14,8.14,0,0,0,5-1.59,9.34,9.34,0,0,0,2.12-2.64.74.74,0,0,1,.27-.53v-.53l-.27-6.36q0-1.59-1.32-1.59h-1.33a5.77,5.77,0,0,1-1.85.27l-.53.26-.53.27h-.26A4.06,4.06,0,0,1,382,290a3.62,3.62,0,0,1-1.32-2.12c0-.35.44-.53,1.32-.53h4.24a6,6,0,0,0,2.12-.53c.7-.35,1.06-.62,1.06-.79V274.1a2.09,2.09,0,0,0-.27-.8,8,8,0,0,1-.26-1.85v-.26a.74.74,0,0,1,.53-.27A10.19,10.19,0,0,0,391,272a3.9,3.9,0,0,0,1.59.53,1,1,0,0,0,.79.26l1.06.27a1.26,1.26,0,0,1,1.06,1.32l-.8.8a3,3,0,0,0-.79.53,2.51,2.51,0,0,0-.53,1.32v5.56a7.92,7.92,0,0,0,.79,4h2.39a4.07,4.07,0,0,0,2.12-1.06l2.11-1.86c.36,0,.71.44,1.06,1.33a2.35,2.35,0,0,0,.27,1.06v.79c0,.36-.36.62-1.06.79a15.49,15.49,0,0,1-2.38.53h-1.33a4.28,4.28,0,0,1-1.32.27,5.72,5.72,0,0,0-1.86,1.06v.79a12,12,0,0,0-.26,2.12c0,2.83.35,4.24,1.06,4.24H396a7.79,7.79,0,0,1,2.12-1.86l1.06-.79a7.54,7.54,0,0,0,1.05-.79l.53.26a1.56,1.56,0,0,1,1.06-.53h.53v.27l-1.59.79a.8.8,0,0,0-.53.26l-3.7,3.45a1.7,1.7,0,0,1-.8.79l-1.06.8a.8.8,0,0,0-.53.26v2.91l.27,5.83v2.91l-.27,5.83a11.06,11.06,0,0,1-2.11,6.09h.26a.8.8,0,0,1-.26.53,11.59,11.59,0,0,1-.53,1.32c-.71,1.23-1.5,1.86-2.39,1.86-.35,0-.79-.45-1.32-1.33v-.26l-.27-.27-.26-.53a1.71,1.71,0,0,0-.8-1.06v-.26a2.18,2.18,0,0,1-1.32-.8l-.79-.79a.74.74,0,0,1-.27-.53C384.11,320.8,384.29,320.62,384.64,320.44Zm13.24,3.71c.35,0,.62-.27.8-.8l.26-.79.53-.53a.76.76,0,0,1,.27-.53l.52-.53a1.56,1.56,0,0,0,.8-1.32,2.62,2.62,0,0,0,1.06-1.59l1.06-1.86c.17-.53.35-1.06.53-1.59l1.59-2.91c.17-.53.35-1.06.53-1.59.17-.7.35-1.59.53-2.65l.79-2.64a11.17,11.17,0,0,1,.27-2.12,8.17,8.17,0,0,0,.26-1.86c0-.35-.44-.53-1.32-.53l-2.39.27a11,11,0,0,1-2.12.26c-.88,0-1.41-.17-1.59-.53-.17,0-.26-.35-.26-1.05v-1.59h.53l.26-.27c.36-.35.62-.53.8-.53a6.16,6.16,0,0,1,1.85.53,7.18,7.18,0,0,0,1.59.27c1.06,0,1.59-.27,1.59-.8a17.29,17.29,0,0,0-.26-2.12,11.08,11.08,0,0,1-.27-2.11,4.24,4.24,0,0,1,.27-1.06,2.68,2.68,0,0,1,.53-1.06v-6.36a20.07,20.07,0,0,0-.27-3.18c-.18-.88-.36-1.94-.53-3.17l-.79-3.18a21.45,21.45,0,0,1-.27-2.91v-.27a.78.78,0,0,1,.53-.26l.27.26.53.27,2.91,1.32h.79l1.33.53a1,1,0,0,0,.79.26,7,7,0,0,0,1.59-.26h.53l1.59-.27A2.33,2.33,0,0,0,417,273h1.85l3.71-1.32a6.58,6.58,0,0,0,2.65-2.39c0-.17.17-.26.53-.26h.79a1.11,1.11,0,0,0,.8.26l.26.27.53.26.8.27c1.58.35,2.38.88,2.38,1.59a2,2,0,0,1-.27.79c0,.18-.18.36-.53.53l-.79,1.06a1.07,1.07,0,0,0-.27.79,2.4,2.4,0,0,1-.26,1.06v1.86a8,8,0,0,0,.26,1.85v.79l.27,2.39v1.59l-.27,1.59v1.05l.27.27v1.32c0,.53-.71,1.59-2.12,3.18q-2.39,2.39-4,2.38l-.27-.26v-2.91a.76.76,0,0,0-.26-.53h-2.38l-3.45.26a12,12,0,0,1-2.38.27,8.06,8.06,0,0,0-3.44.53,4.57,4.57,0,0,0-1.86,1.59c-.17,0-.35.17-.53.52a2.87,2.87,0,0,1-1.06,1.06,2.15,2.15,0,0,1-.79,1.33,1.06,1.06,0,0,0,.53,1.06l1.06.26h3.44l3.18-.26a2,2,0,0,1,.79-.27h2.12a.76.76,0,0,1,.53.27h.53v.26a2,2,0,0,0,.8.27h.79c.17-.71.7-1.06,1.59-1.06h3.18a7.57,7.57,0,0,1,1.85-.27.76.76,0,0,1,.53.27h.53c0-.18.17-.27.53-.27l.53-.26.79.26a3.34,3.34,0,0,1,.8-.53l.79-.26.8-.8.53-.53a3.25,3.25,0,0,1,.79-.53l.53-.79a1.55,1.55,0,0,1,1.32-.79,3.7,3.7,0,0,1,2.12.53l.27-.27a.78.78,0,0,1,.53.27l.79.79a3.27,3.27,0,0,1,.8,1.59,2.28,2.28,0,0,1-1.86,2.38,3.61,3.61,0,0,1-1.59.27h-1.58a25.56,25.56,0,0,0-3.45.26l-5.29.53H426a11.17,11.17,0,0,1-2.12.27,3.46,3.46,0,0,1-.79.53h-.79a1.66,1.66,0,0,0-1.33,1.05v4a.7.7,0,0,0,.8.79h3.44a.23.23,0,0,0,.26-.26l1.59.26c.35,0,.71-.26,1.06-.79.53,0,1-.35,1.32-1.06l.53-.53c.18-.35.36-.53.53-.53a.87.87,0,0,1,.8.53l.26.26.27.27a4.16,4.16,0,0,1,1.59.53,1.54,1.54,0,0,1,.79,1.32c0,.36-.26.62-.79.8l-2.12.26-1.06.26a16.62,16.62,0,0,1-2.12.53l-2.12.27c-2.3,0-3.8.36-4.5,1.06-.36.35-.53,1.24-.53,2.65l.27,5.29a2.29,2.29,0,0,0-1.06.27h-.8l-.79.26c0,.18.35.36,1.06.53a16.19,16.19,0,0,0,2.12.53,33.52,33.52,0,0,0,5.56.53,10.74,10.74,0,0,0,1.85-.26,11.17,11.17,0,0,1,2.12-.27.78.78,0,0,1,.53.27.73.73,0,0,0,.53.26h.53l1.06-.53h1.85l2.38-.26a2.32,2.32,0,0,1,1.06-.27,4.51,4.51,0,0,1,2.12-.26h.8c0,.53-.63,1.15-1.86,1.85l-1.32,1.32a5,5,0,0,0-1.33,1.33L436,323.09a.23.23,0,0,1-.26.26l-.53-.26-5.56.79h-.79l-1.33-.26h-1.32l-.8.26a.24.24,0,0,1-.26.27l-6.62-.27-.53-.26-1.06-.27-.53-.26-.8-.27L414,322q-1.59-.79-1.86-1.59l-1.06-1.06-.53-.53-.79-1.59a.74.74,0,0,1-.27-.53,7.92,7.92,0,0,0-1.06-1.32,3,3,0,0,0-.79.53l-.53.53-1.06,1.32a41.14,41.14,0,0,1-4,4,11.12,11.12,0,0,1-2.12,1.59l-2.12,1.86c-.18,0-.26-.09-.26-.27h-.27A3.16,3.16,0,0,0,397.88,324.15Zm9.8-16.95a.23.23,0,0,0,.26.26c.18,0,.27-.08.27-.26Zm1.85,3.18a2.87,2.87,0,0,0,.27,1.32,29.19,29.19,0,0,0,2.65,3.18,5.27,5.27,0,0,0,3.44,1.32.76.76,0,0,0,.53-.26.78.78,0,0,0,.26-.53l.27-6.36v-4.5a5.77,5.77,0,0,0-.27-1.85c-.17-1.76-.53-2.82-1.06-3.18l-1.32.26h-3.71c-.7,0-1.06.27-1.06.8a1.7,1.7,0,0,0,1.06,1.59c.88.53,1.33,1,1.33,1.32a9.32,9.32,0,0,1-.8,3.71,5,5,0,0,1-1.59,2.91Zm1.33-22.78c.35.71.7,1.06,1.06,1.06h10.33l1.85-.26c.17,0,.35-.18.53-.53v-4l-.27-.8v-1.32l-.26-.53-.53-.53V278.6l-.27-2.38a4.53,4.53,0,0,1-.26-1.33l-.27-.26a34.84,34.84,0,0,0-5.56.53l-1.32.26a.74.74,0,0,0-.53.27h-.79a8.86,8.86,0,0,1-2.65.53h-.27a2.43,2.43,0,0,0-1.06.26,1.08,1.08,0,0,0-.53,1.06v1.59c0,1.24.27,2,.8,2.38l.26-.26a.78.78,0,0,1,.53.26h1.06a2,2,0,0,0,.8.27l4.23-.8h1.06a1.53,1.53,0,0,0,1.06-.26l1.06.26c.53,0,.8.18.8.53a4.5,4.5,0,0,1-1.86.53l-3.71.27a27.42,27.42,0,0,0-3.44.53c-1.24.35-1.94.7-2.12,1.06v.79a2,2,0,0,0-.26.8A5.9,5.9,0,0,0,410.86,287.6Zm3.71,30.46h.26v-.27h-.26Zm9.26,2.64c0,.18.18.27.53.27h.53l.27-.27a2.18,2.18,0,0,0-.8-1.32c-.18,0-.26.18-.26.53a.24.24,0,0,0-.27.26Zm5.3-2.11a.23.23,0,0,0,.26.26.24.24,0,0,0,.27-.26.24.24,0,0,0-.27-.27A.24.24,0,0,0,429.13,318.59Z" transform="translate(-31.39 -259.8)"/><path class="cls-1" d="M462.76,319.91a22.44,22.44,0,0,1,.27-3.71,2.54,2.54,0,0,1-.53-1.85l.26-1.33-.26-2.38v-8.47a20.69,20.69,0,0,1-.8-4.5l-.26-2.39a9.67,9.67,0,0,0-.27-2.38c-.53,0-1.41.71-2.65,2.12l-1.32,1.59a4.55,4.55,0,0,1-1.32,1.32l-.27.53-.26.8a2.57,2.57,0,0,1-1.06,1.58.86.86,0,0,0-.8.53l-.79.8-.27.53a.8.8,0,0,0-.53.26l-.53.27-.53.53a8.83,8.83,0,0,1-1.85,1.85l-.53.27-.26.26-.27.26a.74.74,0,0,1-.53-.26v-.26a3.6,3.6,0,0,1,1.33-2.12l2.11-1.86c0-.35.36-.88,1.06-1.59a4.73,4.73,0,0,0,.8-2.38l2.12-2.65a.76.76,0,0,1,.26-.53c.88-1.23,1.59-2.29,2.12-3.17a29,29,0,0,0,3.44-7.15l.8-2.39.26-.26a.76.76,0,0,0,.27-.53,2.1,2.1,0,0,0,.26-.8,2,2,0,0,0,.27-.79l.26-1.32a2,2,0,0,0,.27-.8l.53-1.32v-.8l.53-1.32.26-.8.27-1.06v-1.05c0-.18-.18-.36-.53-.53l-1.33-.53-.79-.53-.27-.27c0-.35.27-.7.8-1.06l.53-.53a.76.76,0,0,1,.26-.53.24.24,0,0,0,.27-.26,2.53,2.53,0,0,1,1.85-.8l.53.53,1.59.8a8.3,8.3,0,0,1,2.12,1.85A2.46,2.46,0,0,1,471.5,272a4.5,4.5,0,0,1-.79,2.12l-.8,1.06-.26.53-.8,2.38L467,281c-.71,1.24-1.24,2.21-1.59,2.92q0,3.18.26,5.82l.27,7.95a31.16,31.16,0,0,0,.26,5.29,7.71,7.71,0,0,0,.27,1.86v.79l.53,2.12v7.41l.26,3.45-.26,1.58v1.33a5.73,5.73,0,0,1-.27,1.85,3.11,3.11,0,0,0-1.06,1.06c-.35.18-.53.35-.53.53v.27l-.26-.27h-.53a.76.76,0,0,1-.53-.26l-.26-1.06a3.34,3.34,0,0,0-.53-.8A12.25,12.25,0,0,1,462.76,319.91Zm1.06,9.53.53-.26c0-.18.17-.36.53-.53l1.59-.8.53-.26a2.59,2.59,0,0,0,1.06-1.32,26.5,26.5,0,0,0,3.71-3.18,11.78,11.78,0,0,0,3.7-4L476.8,317c.7-1.06,1.23-1.86,1.59-2.39a4.18,4.18,0,0,1,1.05-1.59v-.26a.78.78,0,0,1,.27-.53l.26-.53a.74.74,0,0,0,.27-.53,7.81,7.81,0,0,0-.53-2.91l-.27-.8a2.4,2.4,0,0,1-.26-1.06c0-.35.53-.52,1.59-.52a6.07,6.07,0,0,1,2.91,1.85l1.06,1.06c.35.35.62.53.8.53v1.32a4.64,4.64,0,0,1-1.33,2.38l-1.06,1.33a12.55,12.55,0,0,0-.79,1.32.74.74,0,0,1-.27.53l-.53.27a.23.23,0,0,1-.26.26l-.53.53a.78.78,0,0,0-.27.53c-.18,0-.26.18-.26.53l-.53,1.06a2.39,2.39,0,0,1-2.12,1.59,18.11,18.11,0,0,1-4.5,5.3A36.9,36.9,0,0,1,467,330a6.3,6.3,0,0,1-2.65.8.74.74,0,0,1-.53-.27.73.73,0,0,1-.26-.53A.76.76,0,0,1,463.82,329.44Zm6.09-28.6.27-.53v-.26l2.64-.27,4.77-.26a7.66,7.66,0,0,0,1.85-.53v-5.56l-.26-.53v-.53l.26-.26a2.16,2.16,0,0,1-.26-.8v-2.12a9.37,9.37,0,0,0-.53-2.91l-.26-.26h-4l-.53.26h-1.06A2.24,2.24,0,0,1,471,285l-.53-1.06v-.53c0-.36.09-.53.27-.53h.79l5.83-.53c.88,0,1.32-.18,1.32-.53v-6.89c0-.17-.18-.44-.53-.79l-.53-.53-.53-.27-.26-.26a.74.74,0,0,1-.27-.53l.53-1.06a.78.78,0,0,1,.27-.53,1.21,1.21,0,0,1,1.32-.79,13.11,13.11,0,0,1,2.38,1.06A11.83,11.83,0,0,1,484,273v5a5.7,5.7,0,0,0,.26,1.85c.17,1.42.7,2.12,1.59,2.12l4.5-.26.8-1.06v-9a1.92,1.92,0,0,0-1.06-1.86,1.55,1.55,0,0,1-.8-1.32l1.06-1.86a7.47,7.47,0,0,1,.8-1.06.83.83,0,0,1,.79-.53c.35,0,.88.36,1.59,1.06l1.06.53.79.8a4.64,4.64,0,0,1,1.86.79,3.11,3.11,0,0,1,1.06,1.06.85.85,0,0,1,.52.8,1.54,1.54,0,0,1-.52,1.06l-1.06,1.32a.78.78,0,0,0-.27.53,1.81,1.81,0,0,0-.53,1.32v.53a.74.74,0,0,0,.27.53v4.24q.25,1.59,1.32,1.59a2.8,2.8,0,0,0,1.59-.53.78.78,0,0,0,.53-.27l.79-1.05.53-.53a1.52,1.52,0,0,1,1.06-.53c.35,0,.88.35,1.59,1.06l.27.26.53.53a3.46,3.46,0,0,1,.79.53l.79.79a.78.78,0,0,0,.53.27l.27.26a3,3,0,0,1,1.06,1.86c0,.88-.8,1.32-2.39,1.32l-3.44-.26-1.59.26H499.3a2.37,2.37,0,0,0-2.11.8v3.7l-.27,2.12a50.05,50.05,0,0,0,.27,5.56c0,.18.17.36.53.53h1a5.07,5.07,0,0,0,3.71-1.59l.8-1.32a2.57,2.57,0,0,1,1.32-.53,3.23,3.23,0,0,1,1.85.79,3.55,3.55,0,0,0,2.12.8,2.6,2.6,0,0,0,.53,1.32c0,.18.18.36.53.53L511,299c.17.18.35.36.53.53a2.47,2.47,0,0,1,.26,1.06v.26c0,.18-.18.45-.53.8l-.79.79-1.86-.26h-.79a4.72,4.72,0,0,1-2.12-.53,1,1,0,0,1-.79-.27l-.27-.26-.53.79a2.32,2.32,0,0,1-1.06.27,29.93,29.93,0,0,1-3.71-.27l-1.58-.26H495.6a.76.76,0,0,1-.53.26h-.8l-.79-.26H493a5.78,5.78,0,0,1-1.85.26l-.8.27-3.71.53h-4.76a.76.76,0,0,0-.53.26,2.94,2.94,0,0,1-1.33.27l-3.44.53a3,3,0,0,0-1.32.26h-.53c-.18,0-.27-.08-.27-.26a.74.74,0,0,1-.53.26.76.76,0,0,0-.53.27h-.79a6.07,6.07,0,0,1-1.85.26V304Zm8.74,15.63c0,.35.09.53.27.53v-.53Zm.79-9.8h.27v-.27A.24.24,0,0,0,479.44,306.67Zm5-9.8c.17,1.59,1.14,2.39,2.91,2.39l1.85-.27h1.33l.53-.26.26-2.65v-4.77c-.18-2.12-.26-3.88-.26-5.29l-.27-.27a.8.8,0,0,0-.26-.53A7.47,7.47,0,0,1,489,285h-1.86a8,8,0,0,0-1.85.26c-.71.36-1.06.62-1.06.8v2.38l.27,4.77a13.9,13.9,0,0,1,.26,2.64Zm12.71,21.19-.27-.53-1.32-1.86-.53-.79-.27-.27a1.79,1.79,0,0,1-.53-1.32c0-.17-.17-.44-.53-.79l-1.06-.8a3.64,3.64,0,0,1-1.32-2.38,4.73,4.73,0,0,0-1.59-1.86l-.79-.79-1.59-1.06a1.48,1.48,0,0,1-.53-1.06c0-.35.26-.53.79-.53h.53l.53-.26a2.54,2.54,0,0,1,1.86.79l1.32,1.33q1.59,1,4.24,2.64l1.85,1.59c.7.53,1.32,1,1.85,1.33l1.86.79a10.6,10.6,0,0,0,1.59,1.06l2.11,2.38a3.91,3.91,0,0,1,.8,2.39v1.85c0,.53.09.79.26.79l-.26.53-.27.53a4.31,4.31,0,0,0-1.05.8h-.27l-.53.53a2.87,2.87,0,0,1-2.12.79l-.53-.53a3.25,3.25,0,0,0-.79-.53l-.27-.26L499.3,322a2.84,2.84,0,0,1-1.32-2.65l-.53-.53-.26-.26Zm6.09.53h.53c0-.35-.09-.53-.27-.53S503.28,318.24,503.28,318.59Z" transform="translate(-31.39 -259.8)"/><path class="cls-1" d="M523.14,277.28a.24.24,0,0,1-.27-.27c0-.35,1.5-.62,4.5-.79,3.53-.18,5.39-1.94,5.56-5.3.18-2.82,1.06-4.24,2.65-4.24h.8c2.12.53,3.26.8,3.44.8h.26V268a10.06,10.06,0,0,1-.92.79c-.45.36-.66,1.59-.66,3.71a.78.78,0,0,0-.27.53c0,1.77.44,2.65,1.32,2.65.71,0,1.5-.53,2.39-1.59a1,1,0,0,1,1.06-.8,4.66,4.66,0,0,1,2.65,1.33,14.3,14.3,0,0,0,2.64,2.12l.27.26-.27.27c-.17.17-.62.57-1.32,1.19a13.86,13.86,0,0,0-2.38,3,43.1,43.1,0,0,1-4,5.17q-2.64,3-2.64,4.1c0,.71,1,1.42,3,2.12a11.64,11.64,0,0,1,4.11,2.12,4.3,4.3,0,0,1,.79,2.65v.26a3.28,3.28,0,0,1-1.59,2.38c-.88.53-1.59,1-2.12,1.33a2,2,0,0,1-.79.26c-.18,0-.27-.26-.27-.79a29.08,29.08,0,0,1-.66-2.91,7.77,7.77,0,0,0-1.45-3.45l-.27-.26q-.79,0-.79,7.41-.27,4.52-.27,8a60.72,60.72,0,0,0,.27,6.09v2.12a15.81,15.81,0,0,1-.53,5,9.55,9.55,0,0,1-2.12,3.31,7.46,7.46,0,0,1-2.39,2,.74.74,0,0,1-.53.27c-.17,0-.26-.18-.26-.53-.18,0-.26-.36-.26-1.06,0-1.42.08-3.88.26-7.41q.25-7.68.53-16.16v-1.06q0-5.82-1.32-5.82a.76.76,0,0,0-.53.26q-2.13,1.86-6.76,5.56c-3.09,2.48-4.94,3.93-5.56,4.37a11.83,11.83,0,0,1-1.45.93l-.53.53-.27.26v-.26a.74.74,0,0,1-.26-.53l.26-.27Q530,295.3,535.32,286.28c1.59-3,2.38-5.2,2.38-6.62a1.88,1.88,0,0,0-2.12-2.12h-.26c-3.54.18-5.74.27-6.62.27a15.54,15.54,0,0,0-2.92.26H525A2.52,2.52,0,0,1,523.14,277.28Zm36,11.65q0-10.33,2.39-10.33h.52a24.77,24.77,0,0,1,3.18,1.59.24.24,0,0,1,.27.26l-.27.27a4.25,4.25,0,0,0-.66,1.32,18.38,18.38,0,0,0-.53,4.64c-.09,2.38-.22,4.46-.4,6.22v.79a3.6,3.6,0,0,0,2.12,3.45l2.39,1.59a.23.23,0,0,0,.26.26,6.69,6.69,0,0,0-.79,1.19c-.36.62-.93,3.76-1.73,9.4s-1.28,9-1.45,10.07a2,2,0,0,0-.27.79c0,.71.44,1.15,1.33,1.32a14.55,14.55,0,0,0,2.91.27.73.73,0,0,0,.53.26,11.66,11.66,0,0,0,3.18-.53c1.59-.17,2.73-.3,3.44-.39s1.28-.93,1.72-2.52a26.37,26.37,0,0,1,.8-2.65.41.41,0,0,1,.39-.26H579l.27.26v.27a5.29,5.29,0,0,0-.53,2.12v.79a2.53,2.53,0,0,0,.53,1.85c.53.71,1.23,1.68,2.12,2.92a1.79,1.79,0,0,1,.52,1.32c0,.53-.52,1.06-1.58,1.59a26.18,26.18,0,0,1-4.77,1.59,6,6,0,0,1-2.65.53,9.37,9.37,0,0,1-2.91-.53q-3.18-.54-6.36-1.33-2.91-.52-2.91-3.7a2.29,2.29,0,0,1,.27-1.06q.25-4,.92-13t.93-9.8v.27q0,.79-.53,7.94-.8,8.75-13.64,15.89T535.58,331a.24.24,0,0,1-.26.27v-.8a.51.51,0,0,1,.13-.39c.09-.1,2.74-1.9,7.94-5.43s8.39-6.8,9.54-9.8,2.47-6.13,4-9.4S559.15,296.7,559.15,288.93Zm18-15.49q-.79,1.19-.8,13.11,0,12.18-.53,15a6.43,6.43,0,0,1-2.25,4.1c-1.15.89-2,1.5-2.51,1.85-.18.36-.36.53-.53.53s-.27-.17-.27-.53A18.62,18.62,0,0,1,570,303q0-4.23.26-12.44,0-15.9.27-17.48v-.27c0-.7-.45-1-1.33-1H569c-1.24.17-3.89.35-7.94.52s-6.14,4.86-6.23,14-.22,14.61-.39,16.29a5.49,5.49,0,0,1-1.86,3.83,14.39,14.39,0,0,1-2.12,1.59l-.26.27c-.18,0-.27-.18-.27-.53-.18-.17-.26-.88-.26-2.12s.08-3.09.26-5.56v-28.6l-.26-.26q0-1.86,1.32-1.86a4.33,4.33,0,0,1,1.33.27q2.12,1.32,6.88,1.32a17.35,17.35,0,0,0,2.65-.26c4.59-.18,7.32-.8,8.21-1.86a1.77,1.77,0,0,1,1.59-.79,5.77,5.77,0,0,1,2.91,1.32c2.12,1.42,3.35,2.12,3.71,2.12V272A12.25,12.25,0,0,0,577.16,273.44Z" transform="translate(-31.39 -259.8)"/><path class="cls-1" d="M615.29,307.73a49.57,49.57,0,0,1-.27-5q0-6.61,1.86-6.62h.53a15.61,15.61,0,0,0,3.44,1.32v.53a4.84,4.84,0,0,0-.66,1.19c-.26.62-.4,4.46-.4,11.52s-5.29,12.27-15.88,15.63-16,5-16.16,5a.23.23,0,0,1-.26.26v-.26a.78.78,0,0,1-.27-.53.43.43,0,0,1,.27-.4q.25-.14,14.56-4.9,13.25-4.5,13.24-16.42Zm18.8-38.66c.89-1.59,1.86-2.39,2.92-2.39a4.35,4.35,0,0,1,1.85.53,16.09,16.09,0,0,0,2.91,2.12l.27.27a.43.43,0,0,1-.27.39,6.28,6.28,0,0,0-.79.53,7.65,7.65,0,0,0-.8.67c-.18.17-.49.44-.92.79L636,274.63c-1.77,1.41-3.54,2.74-5.3,4-.53.53-.79.89-.79,1.06,0,.53.88.79,2.65.79h1.32c3.7-.17,6.09-.79,7.15-1.85a1.79,1.79,0,0,1,1.32-.53,6.4,6.4,0,0,1,3.44,1.59c1.94,1.77,3.09,2.82,3.45,3.18v.26a.74.74,0,0,1-.27.53c-.53.18-1.5.44-2.91.8a16.26,16.26,0,0,0-4.64,2.12,10.74,10.74,0,0,1-3,1.58.24.24,0,0,1-.26.27.24.24,0,0,1-.27-.27.24.24,0,0,1,.27-.26,22.64,22.64,0,0,1,.79-3.44q0-2.13-12.44-2.12h-6.89q-19.86.79-19.86,5h.26v.53q0,4-2.65,5.56c-1.94,1.24-3.35,1.85-4.23,1.85l-.27.27c-.88,0-1.32-.88-1.32-2.65s1-3.22,2.91-4.37a7.43,7.43,0,0,0,3.45-5.83c.35-2.73.52-4.19.52-4.36a.24.24,0,0,1,.27-.27h.53v.27a4.15,4.15,0,0,0,.26,1.06,4.23,4.23,0,0,1,.27,1.32c0,.36,1.76.53,5.29.53,2.12,0,4.94-.09,8.48-.27q13.5-.25,16.15-4.1A53.8,53.8,0,0,0,634.09,269.07Zm-27.8.66c2.64,1.68,4.06,3,4.24,4.1v1.06a8.5,8.5,0,0,1-.27,2.12,2.58,2.58,0,0,1-2,2.12l-2.52.79h-.53c-.36,0-.53-.26-.53-.79a3.63,3.63,0,0,1-.26-1.59,17.41,17.41,0,0,1,.26-2.91v-.53a7.28,7.28,0,0,0-1.33-4.77c-1-1.06-1.58-1.76-1.58-2.12h-.27a.24.24,0,0,1,.27-.26h.26C602.23,267.13,603.64,268.05,606.29,269.73Zm31.24,24.36c-.52.62-.83,2.91-.92,6.89s-.18,6.71-.26,8.21a6.23,6.23,0,0,1-2.39,4.23,12.55,12.55,0,0,1-3,2.25.78.78,0,0,1-.53.27c-.18,0-.27-.18-.27-.53a7.55,7.55,0,0,1-.26-2.91c0-1.77.08-4.24.26-7.42q0-9.79.27-11.39v-.26q0-1.32-1.59-1.32h-.27q-1.86.25-11.25.66t-9.53,7.81q-.15,7.41-.4,9.93a6,6,0,0,1-1.86,4c-1,1-1.68,1.55-1.85,1.72l-.27.27c-.18,0-.26-.09-.26-.27h-.27c-.17,0-.26-.17-.26-.53q0-.26.13-6.48t.13-10.2v-7.15l-.26-.26c0-1.24.44-1.86,1.33-1.86a4.86,4.86,0,0,1,1.58.27q2.38,1.32,9,1.32a40.42,40.42,0,0,0,4.23-.26q10.07-.27,11.39-1.86a1.81,1.81,0,0,1,1.32-.53,7.16,7.16,0,0,1,3.45,1.33,26.06,26.06,0,0,0,3.71,2.38l.26.27-.26.26C638.42,293.08,638.07,293.48,637.53,294.09ZM619.79,268.4q3.71,2.27,4,3.58v2.91a2.56,2.56,0,0,1-1.72,2.12c-1,.36-1.82.62-2.52.8H619c-.35,0-.62-.27-.79-.8a18.77,18.77,0,0,1-.4-4,11.86,11.86,0,0,0-1.06-4.9,14.18,14.18,0,0,0-1.19-2v-.26h.26C616,266.07,617.32,266.91,619.79,268.4Zm7.68,36.42h.27l-.27.26a4.25,4.25,0,0,0-.66,1.19,41.19,41.19,0,0,0-1.19,6.09q-.79,5.17-1.06,7v.53c0,.89.35,1.32,1.06,1.32.88.18,2.56.45,5,.8a20.64,20.64,0,0,0,3.44.26,19,19,0,0,0,3.18-.26c1.94-.35,3.35-.57,4.24-.66s1.54-.84,2-2.25.71-2.25.8-2.52.22-.4.4-.4a1.13,1.13,0,0,1,.52.14.42.42,0,0,1,.27.39,6.12,6.12,0,0,1-.53,1.86,2,2,0,0,0-.26.79,1.69,1.69,0,0,0,1,1.59,41.59,41.59,0,0,1,3.18,2.91,1.54,1.54,0,0,1,.53,1.06c0,.7-.7,1.33-2.12,1.86a40.59,40.59,0,0,1-6.61,1.58,20.81,20.81,0,0,1-3.45.27,30.14,30.14,0,0,1-5.3-.53q-5.29-.54-8.74-1.06c-2.12-.18-3.17-1.5-3.17-4v-.8c.17-2.82.4-6.13.66-9.93s.48-6.48.66-8.07c0-1.06.35-1.59,1.06-1.59a4.35,4.35,0,0,1,1.86.53A21.54,21.54,0,0,0,627.47,304.82Z" transform="translate(-31.39 -259.8)"/><path class="cls-1" d="M656.07,335a.78.78,0,0,0,.53-.26h.53a1.94,1.94,0,0,1,.8-.26l1.85-.53,2.65-.8a4,4,0,0,0,2.11-1.06,1.7,1.7,0,0,1,.8-.79.74.74,0,0,1,.53-.27l.53-.26h.26a2,2,0,0,1,.8-.27L668,330a2.07,2.07,0,0,1,.79-.26,9.22,9.22,0,0,0,3.71-1.59,28.82,28.82,0,0,0,7.68-4.77l1.85-1.59,1.59-1.59,1.59-1.58a5.36,5.36,0,0,0,1.85-3.71,6.37,6.37,0,0,0-.79-2.12l-.53-1.32c-.18-.35-.36-.71-.53-1.06l-.53-2.65c-.36-.88-.88-1.33-1.59-1.33a2.53,2.53,0,0,0-1.85.8l-2.39,2.12a.76.76,0,0,0-.52.26l-.8.8a2,2,0,0,1-.79.26,1.06,1.06,0,0,1-.8-.26l-.53-.27a.8.8,0,0,0-.26-.53l-.27-.26a1,1,0,0,0-.79-.27v-.26q0-1.07,1.59-1.86l1.32-.53a3.33,3.33,0,0,0,1.33-.52,13.49,13.49,0,0,1,1.32-1.06,5.64,5.64,0,0,0,1.06-1.33,2.4,2.4,0,0,0,.26-1.06l.27-.53v-.53c0-.17.17-.35.53-.53a1.56,1.56,0,0,1,1.06-.26.85.85,0,0,1,.79.53h2.92v2.65l.26.53v.79l.79,3.18a8.35,8.35,0,0,1,.8,1.06l1.06,1.06h.26a2.3,2.3,0,0,0,1.59-.8,3.89,3.89,0,0,0,.79-1.06,2,2,0,0,0,.27-.79c.35,0,.53-.35.53-1.06s.26-1.06.8-1.06l-.27-.26a2,2,0,0,1,.27-.8l2.11-3.44v-.27c0-.35.8-.7,2.39-1.06a33.27,33.27,0,0,1,4-.26h.79c.35,0,.53.09.53.26a2.88,2.88,0,0,1-.53,1.59l-.53.53-1.32,1.86a2,2,0,0,0-.27.79.76.76,0,0,1-.26.53l-.53.8A15,15,0,0,1,699,307.2l-.53.53-.26.53-.53.53-.8,1.85-1.32,2.12a3.06,3.06,0,0,1-.53.79,2.09,2.09,0,0,0-.27.8l1.33,1.06.53.26.26.27,2.92,2.12,1.85.79a2,2,0,0,1,.79.27c.36.35.62.53.8.53l4.76,2.11a7,7,0,0,1,1.59.8v.26c.71.18,1.5.36,2.39.53l2.11.8a2,2,0,0,1,.8.26h1.06a3.16,3.16,0,0,1,.79.53,4.24,4.24,0,0,1,1.06.27l1.59.26A7.86,7.86,0,0,1,721,326a2.75,2.75,0,0,1,1.06.53,3.07,3.07,0,0,1-1.06.53h-1.32c-1.59.35-2.48.7-2.65,1.06L713.27,330h-.53a1.76,1.76,0,0,1-1.32-.53,2.4,2.4,0,0,1-1.06-.26l-2.12-1.06a1.07,1.07,0,0,1-.8-.27,2.12,2.12,0,0,1-.79-.26l-1.32-.79-1.33-.53a.82.82,0,0,1-.53-.27.47.47,0,0,0-.53-.53h-.53a.23.23,0,0,1-.26-.26h-.53a2,2,0,0,1-.8-.27l-.79-.53c-.36-.35-.62-.53-.8-.53a22,22,0,0,1-5-2.12c0-.17-.17-.43-.52-.79l-1.06-.53a3.28,3.28,0,0,0-1.86-.79,3.23,3.23,0,0,0-1.85.79,9.35,9.35,0,0,0-1.86,1.85,9,9,0,0,1-2.38,1.59l-1.32.8a1.07,1.07,0,0,0-.8.26.76.76,0,0,1-.53.27,65.94,65.94,0,0,1-11.12,5.56l-2.12,1.06a18.7,18.7,0,0,0-2.64,1.06,5.9,5.9,0,0,0-2.12.53,4.16,4.16,0,0,1-1.59.53,4.9,4.9,0,0,0-1.59.26,1.12,1.12,0,0,1-.8.27.78.78,0,0,1-.53.26l-.79.53a.76.76,0,0,0-.53.26,4.92,4.92,0,0,1-1.59.27h-.79l-.53-.27C655.28,335.36,655.54,335.18,656.07,335Zm41.84-37.86v-.53l.27-.27v-1.06a.94.94,0,0,0-1.06-1.06,33.68,33.68,0,0,0-4,.27c-.88.18-2.2.35-4,.53a22.63,22.63,0,0,1-3.7.53,31.58,31.58,0,0,1-4,.26H679.9a7.82,7.82,0,0,0-1.32.27,18.51,18.51,0,0,1-2.12.53,22.56,22.56,0,0,1-3.71.53h-1.06c-.7-.18-1.05-.35-1.05-.53L668.25,294v-.27l.27-.26h6.35l4.51-.26h4.5a3.1,3.1,0,0,0,2.91-1.33l.26-2.91v-4q-.25-4.77-2.91-4.77l-3.44.26a5.17,5.17,0,0,1-2.38.53H677l-2.91.53H672a7.1,7.1,0,0,0-1.59.27l-8.21,1.59a16.67,16.67,0,0,1-2.38.26c-.71,0-1.15-.44-1.33-1.32q-.53-1.59-1.05-1.59v-.27l-.53-.53a1,1,0,0,1-.27-.79.73.73,0,0,1-.26-.53.23.23,0,0,1,.26-.26.74.74,0,0,1,.53-.27h6.36l.53-.26h6.88l6.88-.27h6.89a2.76,2.76,0,0,0,1.86-1.06,15.32,15.32,0,0,0-.27-2.91l-.53-2.91a8.17,8.17,0,0,0-.26-1.86v-2.12a9.06,9.06,0,0,0-1.06-3.44,3.25,3.25,0,0,0-.53-.79h-.53a.78.78,0,0,0-.53-.27,3.89,3.89,0,0,1-1.06-.79l-.8-.8v-.53a.24.24,0,0,1,.27-.26,2.47,2.47,0,0,1,1.06.26l1.06-.26a.8.8,0,0,1,.53.26l.79.27a5.8,5.8,0,0,0,1.86.26l1.85.27,2.38.53c.35.18,1,.44,1.86.79l1.85.27a8.78,8.78,0,0,1,1.32.53,1.89,1.89,0,0,1,1.06,1.85l-.53,1.06c-.35.53-.62.79-.79.79l-.53.53h-.27a.24.24,0,0,0-.26.27,1,1,0,0,0-.79,1.06v2.65a9.17,9.17,0,0,0,.26,2.64c.17,1.95.7,2.92,1.59,2.92l6.88-.27,1.59.27h.53a6.15,6.15,0,0,0,2.39-.8l.52-.26.8-.27.53-.53,1.06-1.06a14.57,14.57,0,0,1,1.32-.79,3.3,3.3,0,0,1,1.86-.53,2.26,2.26,0,0,1,1.58.79l2.12,1.86c.18.18.36.35.53.53.35.35.71.7,1.06,1.06a4.76,4.76,0,0,1,.8,2.38c0,1.59-.62,2.38-1.86,2.38H717l-3.18-.79h-3.18l-.79-.27h-3.71l-4.24-.53-.79-.26-.53-.26-2.38.26H695c-.71.18-1.06.44-1.06.79v2.39c.17,1.59.26,2.74.26,3.44v3.44c0,1.42.44,2.21,1.33,2.39h.79a2.16,2.16,0,0,0,.8.26,8,8,0,0,0,4.23-2.12l.53-.53a.78.78,0,0,1,.27-.53l.26-.26a1.58,1.58,0,0,1,1.33-.8,2,2,0,0,1,.79.27.8.8,0,0,1,.53.26.24.24,0,0,0,.27.27l.26.26c.17.36.35.53.53.53a11,11,0,0,1,1.59,1.33,4.11,4.11,0,0,1,.79,1.06.74.74,0,0,1,.27.53,13.36,13.36,0,0,1-1.59,1.85,8.46,8.46,0,0,0-1.32,1.06,4.33,4.33,0,0,1-4.51,3.18,7,7,0,0,1-3.17-.8A2,2,0,0,1,697.91,297.14Zm-15-35.75c-.09,0-.13.09-.13.26h.26C683.08,261.48,683,261.39,683,261.39Zm11,32c.17,0,.26-.17.26-.53h-.26Zm6.88,6.35v.27a.24.24,0,0,0,.27-.27Z" transform="translate(-31.39 -259.8)"/><path class="cls-1" d="M740.81,329.71c0-1.77-.44-2.91-1.32-3.44A.78.78,0,0,0,739,326l-1.06-.53-.27-.26-.26-.27v-.26l.26-.27,2.65-.53a2.75,2.75,0,0,0,1.06-.53,2.82,2.82,0,0,0,.53-1.06V321l.27-7.68h1.06a.82.82,0,0,0-.27-.53h-.79V312l.26-.8a14.08,14.08,0,0,0-.26-2.65,4.23,4.23,0,0,1-.27-1.32c-.18-.35-.35-.53-.53-.53-.71,0-1.94.79-3.71,2.38a1.11,1.11,0,0,1-.26.8,3.06,3.06,0,0,1-.8.53l-.26.26h-.53a2.91,2.91,0,0,1-.79.53,3.29,3.29,0,0,1-1.33,1.85l-.53.27-.26.26-.8.53-1.32,1.33a2.6,2.6,0,0,1-1.33.53v-.27l-.26-.26v-.53a.24.24,0,0,0,.26-.27l-.26-.26-.26-2.12a10.52,10.52,0,0,0-.8-3.18v-.53a.78.78,0,0,1,.53-.26.78.78,0,0,0,.53-.27l1.32-.79a1.12,1.12,0,0,1,.8-.27.76.76,0,0,0,.53-.26l.26-.53.27-.53c0-.17.17-.26.53-.26l.79.26a8.21,8.21,0,0,0,2.39-.53l1.06-.53a4.42,4.42,0,0,1,1.32-.26q3.71-.53,3.71-2.39a12.17,12.17,0,0,0-.27-2.12,7.57,7.57,0,0,1-.27-1.85l.27-4.76c0-1.95-.35-3.09-1.06-3.45h-5l-.79.53-.8.27h-2.12c-.18,0-.35-.18-.53-.53a2.16,2.16,0,0,0-.26-.8l-.53-1.32-.53-1.06v-.26c0-.53.44-.8,1.32-.8h.53l.8.27h.53a4.28,4.28,0,0,0,1.32-.27h.53l1.86-.26a4.17,4.17,0,0,1,1.32-.27H739a.74.74,0,0,0,.53.27h1.06a2.06,2.06,0,0,0,.79-.27l.53-.53c.17,0,.35-.26.53-.79v-5l.26-2.92.27-.53a7.86,7.86,0,0,1-.27-2.38l-.26-2.38a15.23,15.23,0,0,0-1.59-4.77v-.27a.7.7,0,0,1,.79-.79h2.65a7.1,7.1,0,0,1,2.12.26c1.76.53,2.65,1.42,2.65,2.65a1.52,1.52,0,0,1-.53,1.06l-.79,1.06-.53.8-.27.53-.79.79a2.06,2.06,0,0,0-.27.79v.8a.78.78,0,0,1,.27.53,2.87,2.87,0,0,1-.8,2.12v.26l.53,2.12v1.06l-.26,1.06v.79l.26,1.06c.18.89.53,1.33,1.06,1.33a.78.78,0,0,0,.53-.27l.8-.79a2.88,2.88,0,0,1,2.11-1.33c.18,0,.44.18.8.53a6.7,6.7,0,0,1,1.06,1.59q.52.8,1.32,1.86v.26h.27l.79,1.06a2.54,2.54,0,0,1-2.38,1.59h-.53l-.27-.27a21.52,21.52,0,0,0-4,.27,1.89,1.89,0,0,0-1.32.79v1.59a.74.74,0,0,1-.27.53l.27,2.65v1.85a10.91,10.91,0,0,1-.27,2.65v.8a.72.72,0,0,0-.26.52,2.54,2.54,0,0,0-.53,1.33v.26l.79,1.86a16.08,16.08,0,0,1,.27,3.17v9l-.27,2.38v2.65l.27,1.32v2.39a2.35,2.35,0,0,1-.27,1.06.8.8,0,0,1-.26.53l-.27.53-.26.53a3.52,3.52,0,0,1-.8,1.32,4.35,4.35,0,0,1-3.17,1.85Zm-7.68-43.16a.23.23,0,0,0-.26.26h.26Zm9.93-10.07c-.09,0-.13.09-.13.27V277a.24.24,0,0,0,.27-.26C743.2,276.57,743.15,276.48,743.06,276.48Zm.93,21.19a.23.23,0,0,0,.26.26v-.53A.24.24,0,0,0,744,297.67Zm.79-32.05c-.35,0-.53.1-.53.27h.53a.84.84,0,0,0,.8-.53Zm.53,33.5c0-.08-.09-.13-.26-.13v.27C745.22,299.26,745.31,299.21,745.31,299.12Zm-.26,5.7a.23.23,0,0,0,.26.26v-.53A.24.24,0,0,0,745.05,304.82Zm22,19.86c0-.18.35-.36,1.06-.53a7.63,7.63,0,0,1,1.32-.27.8.8,0,0,0,.53-.26l1.32-1.59v-5l-.26-1.06V313l.26-1.58a10.92,10.92,0,0,0-.53-2.65,4.73,4.73,0,0,0-.52-1.86,9,9,0,0,0-2.12.27l-4.24.26h-2.38l-2.39.8-1.59.26h-2.38l-1.32-.26a.24.24,0,0,1-.27-.27c-.17-.35-.35-.7-.53-1.06a4.08,4.08,0,0,1-.53-1.58l.27-.27.26-.26,5.56.26,9.8-.53a3.66,3.66,0,0,0,1.86-.26,2,2,0,0,1,.26-.8v-1.32a16.68,16.68,0,0,0,.53-4.5,5.79,5.79,0,0,0-.27-1.86c0-.17-.26-.35-.79-.53l-.53-.53h-1.32l-.8.27a12.39,12.39,0,0,1-2.91.26h-1.59a4.28,4.28,0,0,1-1.32.27,27.82,27.82,0,0,1-4,.26h-1.32a.74.74,0,0,0-.53.27h-.53c-1.41,0-2.12-1-2.12-2.91a.71.71,0,0,1,.8-.8l.53.27h1.06q6.09,0,7.41-.8c.53-.17.88-1.06,1.06-2.65l.26-1.32v-.53a7.57,7.57,0,0,0,.27-1.85.8.8,0,0,0,.26-.53.76.76,0,0,0-.26-.53l-.53-.53a1.07,1.07,0,0,0-.79-.27h-.53a.78.78,0,0,1-.53.27l-1.59.26h-2.92a.74.74,0,0,1-.53.27c-.88,0-1.32-.27-1.32-.8l.27-2.12c0-.17.35-.43,1.05-.79a15.43,15.43,0,0,1,2.92-.27l.79.27,1.06-.27,1.59-.26q1.32-.53,1.32-1.32v-3.18a2.1,2.1,0,0,1-.26-.8q0-5.82-3.18-8.74v-.26c0-.17.27-.35.8-.53h1.32a3.23,3.23,0,0,1,1.85.79l.53.27c0,.18.09.26.27.26a3.25,3.25,0,0,1,.79.53,2,2,0,0,1,.8.27,2.27,2.27,0,0,0,1.06.26,1.05,1.05,0,0,0,1.06.53l1.32.53c1.06.18,1.59.62,1.59,1.33a1.79,1.79,0,0,1-.53,1.32,2,2,0,0,1-.27.79l-1.06,1.06a2.9,2.9,0,0,1-.52.8,1.76,1.76,0,0,0-.53,1.32l.26.27-.26,2.38a2.14,2.14,0,0,0,1.05,1.59,3.52,3.52,0,0,0,2.12.79c.18,0,.35-.17.53-.53l.27-.26.53-1.59a.76.76,0,0,1,.53-.26l2.91-2.12a4.28,4.28,0,0,1,1.32-.27,2.83,2.83,0,0,0,1.33,1.06l1.85,1.33.53.26.53.53.53.53a3.23,3.23,0,0,1-.79,1.85,1.52,1.52,0,0,1-1.06.53h-.27a4.28,4.28,0,0,1-2.65.8h-1.58a35,35,0,0,1-6.63.53,3,3,0,0,0-.52.79h-.27v.27l-.26.26a3.34,3.34,0,0,1-.53.8V286h-.27v3.17a.76.76,0,0,1-.26.53V290c0,1.41,1.14,2.12,3.44,2.12a15.47,15.47,0,0,0,3.44-.27H780l1.06-1.06,1.33-1.32,1.06-1.06c.35,0,.79.35,1.32,1.06a2.16,2.16,0,0,0,1.59,1.06l1.06.53c.35.35.61.62.79.79l.27.27c0,.35-.45.7-1.33,1.06a6.54,6.54,0,0,1-2.38.52l-1.59-.26a2.88,2.88,0,0,0-1.59.53h-4.23l-.27-.53c-.18,0-.44.18-.79.53l-.53.26a.73.73,0,0,0,.26.53.24.24,0,0,1,.27.27h.52l.54.53a.78.78,0,0,1,.26.53v1.32l-.8,2.65a3,3,0,0,0-.26,1.32,1.17,1.17,0,0,0,1.32,1.33,2.85,2.85,0,0,0,1.59-.53,2.18,2.18,0,0,0,1.33-.8,2.52,2.52,0,0,1,1.85-.79,1.56,1.56,0,0,1,1.06.53l.53.26c.17.18.35.36.53.53,0,.18.17.36.53.53l1.06.53a2.28,2.28,0,0,1,.79,1.59c0,.89-1.23,1.33-3.7,1.33H780.8c-.89,0-1.33.09-1.33.26h-.79l-1.32-.26c-.54,0-.89.52-1.06,1.58v3.45a16.15,16.15,0,0,0,.26,3.17v.53l.26.53-.26,5.56v.53l-.26.53v.8l.26.26v1.33a5.42,5.42,0,0,1-1.32,4,19,19,0,0,1-1.86,1.06l-2.12.79-.53.53a2,2,0,0,1-.79.27,1.25,1.25,0,0,1-1.32-1.06v-2.12a2,2,0,0,0-.27-.79Zm-11.92-30.46h.27V294A.24.24,0,0,0,755.11,294.22Zm4.5,20.39-.26-1.59v-3.17c0-.53.17-.8.53-.8a27.18,27.18,0,0,1,3.18,2.65,5.39,5.39,0,0,1,1.58,3.18,4,4,0,0,1-1.58,3.18,4.43,4.43,0,0,1-2.92,1.59.84.84,0,0,1-.79-.53Zm2-.79c-.09,0-.13.09-.13.26v.27a.24.24,0,0,0,.26-.27C761.73,313.91,761.69,313.82,761.6,313.82ZM764,266.68c-.09,0-.13.09-.13.27h.26C764.11,266.77,764.07,266.68,764,266.68Zm2.52,3.18a.24.24,0,0,0,.26.27v-.53A.23.23,0,0,0,766.5,269.86Zm5,11.12a2,2,0,0,0-.27.8.74.74,0,0,0,.53-.27Zm-.27,44.49a.24.24,0,0,0,.27.27.24.24,0,0,0,.26-.27.23.23,0,0,0-.26-.26C771.35,325.21,771.26,325.29,771.26,325.47Zm.8-3.44a.24.24,0,0,0-.27-.27Zm.26-18.54a.24.24,0,0,0,.27.27.24.24,0,0,0,.26-.27v-.26l-.26-.27a.24.24,0,0,0-.27.27Zm.53,20.66c.35,0,.53-.27.53-.8C773,323.35,772.85,323.62,772.85,324.15Zm1.06-.53-.26.26v.27Zm.27,1.59h.26v-.27Zm.79.79-.26-.26-.27.26Zm.27-26.22c-.18,0-.18.18,0,.53a.74.74,0,0,0,.53.27l.26-.27v-.53h-.79Zm1.58,5.57h.27v-.27h-.27Z" transform="translate(-31.39 -259.8)"/><path class="cls-1" d="M799.07,331a.23.23,0,0,1-.26-.26c0-.53.79-1.24,2.38-2.12q2.91-1.33,2.91-3.18v-2.38q0-.54-.93-.66a23,23,0,0,1-3-.8,2.55,2.55,0,0,1-2.12-2.51v-4.77c0-1.76,1-2.65,2.91-2.65h5.83q3.18,0,3.18,3.44v8.21q0,4.77-5,6.62a14.31,14.31,0,0,1-4.77,1.59A1.07,1.07,0,0,1,799.07,331Z" transform="translate(-31.39 -259.8)"/></svg>