<svg id="图层_1" data-name="图层 1" xmlns="http://www.w3.org/2000/svg" viewBox="0 0 736.98 42.66"><defs><style>.cls-1{fill:#97a2ad;}</style></defs><path class="cls-1" d="M71.26,308.64v-.49l-.16-.81.16-.49v-3.1l-.16-4.07a1.39,1.39,0,0,0,.16-.65,1.22,1.22,0,0,0-.16-.49v-.48l-.16-.49v-.82L71.1,295l-.16-.16v-.65a17.33,17.33,0,0,1-.17-2,2.63,2.63,0,0,0-.49-1.63c-.21-.43-.38-.65-.48-.65a.15.15,0,0,0-.17.17,1.85,1.85,0,0,0-1.3.65l-.49.49-.32.48-2.61,1.8a1.41,1.41,0,0,1-.49.16c-.11.11-.43.38-1,.81a3.63,3.63,0,0,1-1.63.82h-.17q.16-.33.33-.33h.16v-.16h.33a.47.47,0,0,1,.16-.33l.16-.32a.48.48,0,0,1,.33-.17l.81-.48a1.88,1.88,0,0,0,.49-.33l2.12-2.28a.47.47,0,0,0,.16-.33l.49-.48,1-1.14.81-.49.33-.33.32-.65a7.06,7.06,0,0,0,2-2.28l.48-1a.45.45,0,0,0,.17-.32c.21-.33.38-.49.49-.49v-.16a1.22,1.22,0,0,1,.16-.49h.16l.16-.33a1.23,1.23,0,0,0,.17-.49l.65-2.6v-.49a3.92,3.92,0,0,0-.16-1.14v-.16a.47.47,0,0,1,.16-.33,1.42,1.42,0,0,1,.65-.16h1.63a3.67,3.67,0,0,1,1.14.49l1.14,1.14a2,2,0,0,1,.49,1,1.37,1.37,0,0,1-.82,1.14l-.49.33c-.21.22-.32.38-.32.49l-1,.81a2.85,2.85,0,0,0-.81,1.63.62.62,0,0,0,.49.65,1.71,1.71,0,0,0,1,.33,2.72,2.72,0,0,0,.82-.17l1.46-.16a1.56,1.56,0,0,1,.65-.16h2.77l4.07-.16h2a.48.48,0,0,0,.32-.17l.33-.16a1.18,1.18,0,0,1,.49-.16l.32-.16a11.53,11.53,0,0,1,1.14-.66l.49-.32.65-.33.16-.16.33-.33a3,3,0,0,1,1.47.49l1.14.82a1.89,1.89,0,0,1,.65,1.3c0,.11-.11.27-.33.49a1.66,1.66,0,0,0-.32.49c-.44.43-.71.65-.82.65a1.53,1.53,0,0,0-1.14,1.14,1.42,1.42,0,0,1-.16.65l-.33,2.6-.65,6-.16,1.63v1.14l-.33,1.14a6,6,0,0,1-1.3,3.58,8.56,8.56,0,0,1-3.42,2.77.45.45,0,0,1-.32-.17,1.65,1.65,0,0,1-.33-.48V306l-.33-.48a1.66,1.66,0,0,0-.32-.49l-1.47-1.14-.32-.17c-.11,0-.17-.05-.17-.16s.17-.16.49-.16a2.29,2.29,0,0,1,1-.16c.87-.11,1.36-.17,1.47-.17.54-.21,1-.92,1.3-2.11a14.7,14.7,0,0,0,.65-3.1v-.32l.16-.65.49-3.75v-1.3a1.45,1.45,0,0,0,.16-.65l.17-.66a8.21,8.21,0,0,0,.16-1.46,11.66,11.66,0,0,0,.16-2c0-.66-.6-1-1.79-1.14H85.43l-1.31.16-3.74.32H77.94a10.51,10.51,0,0,0-2.28.17h-.49a1.22,1.22,0,0,0-.49.16h-.81a2.92,2.92,0,0,0-1.14.16c-.22,0-.33.06-.33.17l-.33.48-.32.33a2.7,2.7,0,0,1-.65.49,2,2,0,0,0,.81,1.63,2.53,2.53,0,0,1,.65.48.66.66,0,0,0,.49.17l.33.32h3.25a23.68,23.68,0,0,0,2.94-.16,1,1,0,0,0,.65-.33l.65-.48a2.35,2.35,0,0,1,1.3-.65,2.47,2.47,0,0,1,.65.16l.65.49a1,1,0,0,1,.65.48q.33.17.33.33a1.4,1.4,0,0,1-.49,1,3.71,3.71,0,0,0-.65.81l-.16,1.79v2.77a9.24,9.24,0,0,1-.17,2.28l-.32.33a10,10,0,0,1-1.79.32H78.26l-1.14.17h-2.6l-.49.16h-.49a1,1,0,0,0-.65.81v1.14a1.41,1.41,0,0,1-.16.49v.16l.16.82.32,1.95.17,2a3,3,0,0,1,.16.65c0,.22-.06.32-.16.32a.7.7,0,0,1,.16.49l.16.16v.33c.11.54.27.87.49,1l2,.32h1.14a.94.94,0,0,1,.65.17,2.66,2.66,0,0,0,.81-.17l1.63-.16h.81l1,.16a4.64,4.64,0,0,0,1.14-.16H84a1.22,1.22,0,0,1,.49-.16.51.51,0,0,1,.49.32v-.16l1.46-.16H88a11.17,11.17,0,0,1,1.31-.33,3.67,3.67,0,0,1,1.3-.33,8.92,8.92,0,0,1,1.63-.16,4.35,4.35,0,0,1,1-.32h.17l1-.17a9.23,9.23,0,0,1,1.14-.48,3.76,3.76,0,0,0,1-.66l.33-.65.32-.81a3.76,3.76,0,0,1,.82-1.47,3.08,3.08,0,0,1,.32,1.14,7.21,7.21,0,0,1,.33,2v.32a2.18,2.18,0,0,1,.32.49l.33.65.16.33v.16l.16.16a2.53,2.53,0,0,1-2.28,2.28A18.58,18.58,0,0,0,95,313a9.48,9.48,0,0,1-2.11.32l-.82-.16h-.48a.47.47,0,0,1-.33.16l-.81.16c-.11,0-.28-.11-.49-.32l-.33.32H89.5a1.28,1.28,0,0,1-.49.17h-2l-3.59.32-4.88.17a1.81,1.81,0,0,1-.82-.17l-1.3-.16a8.83,8.83,0,0,0-2-.33C72.56,312.76,71.48,311.14,71.26,308.64Zm.81-6.35h.17v-.16C72.13,302.13,72.07,302.18,72.07,302.29Zm.41.32s-.08.06-.08.17h.16C72.56,302.67,72.54,302.61,72.48,302.61Zm.41-4.55a1.15,1.15,0,0,0,1.14.81h1.3l1-.16h2.77c.21-.11.38-.44.49-1V296.1l.16-1.79c-.11-1.19-.33-1.84-.65-1.95H76.15c-2,0-3,.54-3.1,1.62.11,0,.16.06.16.17l-.16.16V295l-.16.65Zm23.94,12.7h-.17v.16h.17Z" transform="translate(-61.65 -274.28)"/><path class="cls-1" d="M102.53,297.73l.48-.16.17-.17.65-.65a.47.47,0,0,1,.32-.16l1.31-.82.81-.48.49-.49a11.55,11.55,0,0,0,1.14-1l.49-.49.16-.32a.48.48,0,0,1,.33-.17A5.49,5.49,0,0,1,110,291.7l.65-.32.32-.33,1.14-.81a2.7,2.7,0,0,1,.65-.49l2.77-2.77,1.31-1.63c.54-.75,1-1.35,1.3-1.79l.81-1.14a11.57,11.57,0,0,1,.65-1.14,9.49,9.49,0,0,1,.49-1.14v-.32l.33-.82.16-.16v-.16h.16a.79.79,0,0,0,0-1l-.16-.49-.16-.16-.17-.16v-.49q0-.33.66-.33h.81a4.55,4.55,0,0,1,1.79.82,5.83,5.83,0,0,1,1,.81l1,.82.82.48a1,1,0,0,1,.49.82,1.56,1.56,0,0,1-.16.65l-.17.16a.47.47,0,0,0-.16.33,5.39,5.39,0,0,0,.65,1.63l1,1.46a13,13,0,0,0,2.28,2.61l1.46,1.3,1.14,1.14a10.49,10.49,0,0,0,1.79,1.14,20.4,20.4,0,0,0,2,.81.51.51,0,0,0,.49.33l.48.16.33.16.49.17.32.16.82.49a7.46,7.46,0,0,0,1.79.81,1.62,1.62,0,0,1,.65.33,2.86,2.86,0,0,0,1.3.49h.66c.43.11.65.27.65.49s-.17.21-.49.32l-.33.16-1-.16a7.27,7.27,0,0,0-2.61.49l-1.63.81a3.69,3.69,0,0,1-1.46.49,2.4,2.4,0,0,1-1-.32,12.11,12.11,0,0,1-2.28-1.31,22.86,22.86,0,0,1-1.95-1.79,11.84,11.84,0,0,1-2-1.63l-1.79-1.79v.17l-.16.48a1.16,1.16,0,0,1-1,1h-2.12l-3.42.33a21.6,21.6,0,0,0-2.28.16l-1,.16a3.06,3.06,0,0,1-1,.17c-.11,0-.16-.11-.16-.33a.47.47,0,0,1-.16-.33l-.17-.16v-.16c-.22-.65-.49-1-.81-1a1.74,1.74,0,0,0-1,.33l-.33.32-.32.17-.16.16c-.55.43-1.14.87-1.79,1.3a17.24,17.24,0,0,1-1.8,1.14,2,2,0,0,1-.48.33l-1.47.81a6.37,6.37,0,0,0-1.63,1.14h-.32l-.17.16h-.16l-.65.33-.33.33-.48.16c-.55,0-.88.16-1,.49h-.49l-.33.32v.17a.14.14,0,0,0-.16.16h-.32a.15.15,0,0,1-.17-.16C102.36,297.84,102.42,297.73,102.53,297.73Zm9.28,13.68a11.06,11.06,0,0,1,.32-1.14v-1.79l-.16-1.8.16-.65v-2.6a1.42,1.42,0,0,1-.16-.65.47.47,0,0,1-.16-.33l-.33-.32-.16-.17v-.65h1.46a5.33,5.33,0,0,1,1.47.16l.16.17a1.22,1.22,0,0,1,.49.16l.33.33h.32a3.38,3.38,0,0,0,1.31-.17h2.76l1.31-.16c.43,0,.75-.54,1-1.63a9,9,0,0,0,.33-2.11.72.72,0,0,0-.82-.82l-2.28.16a9,9,0,0,0-1.79.33h-1l-.82.16c0-.1-.11-.16-.32-.16a.67.67,0,0,1-.49.16l-.17.17h-.16a.43.43,0,0,0-.32.16h-1c-.22,0-.44-.22-.65-.65a3.41,3.41,0,0,1-.49-1.8c0-.1.11-.16.33-.16a.47.47,0,0,0,.32-.16l9.61.16a1.09,1.09,0,0,0,.81-.32.48.48,0,0,0,.17-.33l.16-.49a15,15,0,0,1,1.3-2H125l.48.32a1.87,1.87,0,0,0,.66.66l.65.65.49.49.16.16.65,1a.47.47,0,0,1,.16.33,1.22,1.22,0,0,1-.16.49l-.49.33-.16.16-.16.32-.33.33a3,3,0,0,0-.16,1l-.16.16a1.43,1.43,0,0,1-.17.65,9.49,9.49,0,0,0-.16,1.47v.32a.57.57,0,0,0,.65.65h3.42a1.22,1.22,0,0,0,.49-.16l.65-.33a9.34,9.34,0,0,0,1-.81l.32-.65a.47.47,0,0,1,.33-.16.67.67,0,0,1,.49.16l1.46,1.14.65.32.17.17.16.16a1.6,1.6,0,0,1,.81,1.47,2.68,2.68,0,0,1-.32,1.13,2.83,2.83,0,0,0-.49,1.15l-.16,1.46v3.58a2.76,2.76,0,0,1-1.63,2.28,1.88,1.88,0,0,1-.49.33,3,3,0,0,1-1,.16l-.32-.49-.33-1c-.43-.76-.87-1.14-1.3-1.14h-7.17l-2.6.32h-4.4a.66.66,0,0,1-.49.17h-.32a.14.14,0,0,0-.16.16c-.44.1-.66.54-.66,1.3a2.52,2.52,0,0,1-.65,1.47,2.24,2.24,0,0,1-1.3.81,1.53,1.53,0,0,1-.81-.33,1.29,1.29,0,0,1-.49-.81Zm3.58-2.77c.11.65.33,1,.65,1h1.3l1.31-.17,1.79-.32h2.93l6-.16a2.67,2.67,0,0,0,1.47-.33,1.32,1.32,0,0,0,.65-1.3v-3.1c0-.32-.65-.49-1.95-.49a2,2,0,0,0-.82-.16,5.26,5.26,0,0,0-1.14.16h-2.44a.7.7,0,0,0-.49-.16h-1.14a9.64,9.64,0,0,1-1.3.16h-5.54l-.65.49c-.22.22-.32.38-.32.49a5,5,0,0,0-.33,2.12Zm2.44-18.73H120a20.55,20.55,0,0,1,2.28-.16,1.62,1.62,0,0,0,.81-.32,3.53,3.53,0,0,0,.82-.66l.81-.65a1,1,0,0,1,.65-.32c.11,0,.27.11.49.32l.33.33a1.53,1.53,0,0,0,.49.32l.32.33.33.33c.21.21.38.32.48.32v-1a8.26,8.26,0,0,1-1.13-1.95q-.16-.49-.33-1.14l-.33-1.47-.16-.48a6.8,6.8,0,0,1-.16-1.14c-.22-.87-.55-1.31-1-1.31a.66.66,0,0,0-.49.17l-.49.48h-.16l-.16.33-.65.81c-.33.33-.76.82-1.31,1.47l-.32.32-.16.33q-.17,0-.33.33l-.49.65c-.22.11-.32.22-.32.32a5.35,5.35,0,0,0-.66.82l-1.3,1.14-.32.32a1,1,0,0,0-.33.66C117.18,289.75,117.4,289.91,117.83,289.91Zm2.93-5.21c0,.11.06.16.17.16v-.32A.15.15,0,0,0,120.76,284.7Z" transform="translate(-61.65 -274.28)"/><path class="cls-1" d="M162.77,300.34c.11,0,.17.05.17.16s-1,1.63-2.77,4.23-2.69,4-2.85,4.32a5.74,5.74,0,0,1-.9,1.05c-.43.44-.79.82-1.06,1.15a8.21,8.21,0,0,0-.57.73.74.74,0,0,0-.16.4c-.11.22-.22.33-.32.33v-.16a8.67,8.67,0,0,1-1.63-1.3c-1-.87-1.52-1.36-1.63-1.47l-.16-.16.16-.17.49-.16a9.58,9.58,0,0,0,1.14-.81c.54-.44.89-.74,1.06-.9l.4-.41a17.19,17.19,0,0,0,.17-3.9v-5q-.17-9-1.47-9a22.16,22.16,0,0,1-2.28.17,8.19,8.19,0,0,0-1.63.16h-.49a1.56,1.56,0,0,1-1.14-.49l-.16-.16c0-.33,1-.55,3.1-.66,2.38,0,3.85-.37,4.39-1.13a1.4,1.4,0,0,1,1-.49,2.87,2.87,0,0,1,1.46.49,10.58,10.58,0,0,0,1.79,1.13H159l-.17.17c-.1.11-.32.38-.65.81s-.59,3.15-.81,8.14a10.87,10.87,0,0,0-.16,1.79c0,2.72.43,4.08,1.3,4.08a2.09,2.09,0,0,0,1.14-.49A38.94,38.94,0,0,1,162.77,300.34Zm-8.46-22.8c1.62.54,2.52,1.08,2.68,1.63s.35,1.14.57,1.79v.32a1.8,1.8,0,0,1-1,1.47,8.06,8.06,0,0,1-1.63,1h-.33c-.11,0-.22-.11-.32-.33a6.8,6.8,0,0,1-.74-2.52,5.88,5.88,0,0,0-1.22-3q-.81-.81-.81-1.14h-.17a.15.15,0,0,1,.17-.16h.16A16.17,16.17,0,0,0,154.31,277.54Zm8.14,17.26a1.11,1.11,0,0,1-.82-.33.14.14,0,0,1-.16-.16.47.47,0,0,1,.16-.33,68.27,68.27,0,0,1,6.84-.32c4.34-.11,6.79-.49,7.33-1.14a1.1,1.1,0,0,1,.81-.33,3.62,3.62,0,0,1,2,.82,11.84,11.84,0,0,0,2,1.3l.16.16-.16.17a12.25,12.25,0,0,1-1.06.81,11.9,11.9,0,0,0-2.36,2.93,21.5,21.5,0,0,1-3.58,4.23,2.51,2.51,0,0,0-.81,1.79c0,.88.65,1.74,1.95,2.61a17.42,17.42,0,0,0,7.08,3.34c2.66.59,4,.92,4.07,1a.37.37,0,0,0,.25.08v.16l-.16.16h-1.63a4.19,4.19,0,0,0-3.1,1.63,2.67,2.67,0,0,1-1.95.82,5.07,5.07,0,0,1-2.77-1,15.32,15.32,0,0,1-5.21-4.07,2.7,2.7,0,0,0-2.12-1.3,4.26,4.26,0,0,0-2.76,1.3,38.83,38.83,0,0,1-6.6,4.39c-2.44,1.31-3.72,2-3.83,2a.14.14,0,0,1-.16.16v-.16c-.11,0-.16-.06-.16-.17l-.16-.16.16-.16,3.74-2.28a22,22,0,0,0,6.19-5,5.48,5.48,0,0,0,1.47-3.42,4.13,4.13,0,0,0-.49-1.79,12.28,12.28,0,0,1-2-5.05q-.65-2.76-1.62-2.76A.67.67,0,0,1,162.45,294.8Zm15.47-16.28h.16l-.16.16a6.37,6.37,0,0,0-.65,1,18.68,18.68,0,0,0-1.31,3.42c-.54,1.74-.87,2.83-1,3.26v.33c0,.32.1.49.32.49a7,7,0,0,0,1.79.16.47.47,0,0,0,.33.16,5.54,5.54,0,0,0,2.44-.65l1.63-.81a.48.48,0,0,1,.33-.17H182c0,.11,0,.17.16.17v.16l.81.49a4.6,4.6,0,0,1,1.14,1.22,2.57,2.57,0,0,0,.82.89v.17c0,.11-.11.22-.33.32-.43.22-1.14.55-2.11,1a6.67,6.67,0,0,1-2.61.49,4.7,4.7,0,0,1-1.14-.17c-1.41-.1-2.88-.27-4.4-.48a2,2,0,0,1-2.11-2.28v-.49c.1-1.63.27-3.31.49-5.05v-.49c0-1.41-.76-2.12-2.28-2.12h-.17c-1.52.11-2.28,1.31-2.28,3.59v1.46q0,3.75-3.74,6.52a33.45,33.45,0,0,1-4.56,3.09.14.14,0,0,1-.16.16c-.11,0-.17-.05-.17-.16s.06-.16.17-.16c0-.22.86-1.14,2.6-2.77a7.29,7.29,0,0,0,2.44-5.54v-.16q-.17-3.42-.16-6.19c0-1.3.27-1.95.82-1.95a1.66,1.66,0,0,1,.81.32l1.63,1.14c0,.11.11.17.32.17s1-.06,2.12-.17c1.63-.1,2.71-.54,3.26-1.3a1,1,0,0,1,1-.65,3.76,3.76,0,0,1,1.63.49A13.87,13.87,0,0,0,177.92,278.52Zm-4.4,18.23a2.55,2.55,0,0,0,.16-.81c0-1-1.19-1.47-3.58-1.47h-.49q-4.73.16-4.72,2v.32a8.6,8.6,0,0,0,2.44,4.24,2.7,2.7,0,0,0,1.79,1,1.91,1.91,0,0,0,1.63-1A26.14,26.14,0,0,0,173.52,296.75Z" transform="translate(-61.65 -274.28)"/><path class="cls-1" d="M208.53,300.82c.11,0,.16.06.16.17s-1.36,1.81-3.74,4.8-3.72,4.59-4,4.8a6.94,6.94,0,0,0-1.06,1.22c-.44.6-.76,1-1,1.31s-.38.46-.49.57a.43.43,0,0,0-.16.32c-.11.22-.22.33-.32.33v-.16a9.52,9.52,0,0,1-1.71-1.47c-1-1-1.61-1.52-1.71-1.63v-.32a.9.9,0,0,1,.65-.17,3.07,3.07,0,0,0,1.46-.65l.49-.32-.16.16c-.33.22-.44.32-.33.32l.49-.32c.54-.43.82-3.91.82-10.42s-.44-9.77-1.31-9.77a22.23,22.23,0,0,1-2.44.16,8.22,8.22,0,0,0-1.79.16,1.28,1.28,0,0,1-.49.17,1.46,1.46,0,0,1-1-.49l-.16-.16q0-.49,3.09-.66c2.5-.1,4.08-.54,4.73-1.3a1.09,1.09,0,0,1,1-.49,3,3,0,0,1,1.47.49,10.2,10.2,0,0,0,1.79,1.14l.16.16h-.16c-.11.11-.32.39-.65.82s-.55,3.36-.65,8.79v.81c0,3.59.59,5.38,1.79,5.38a2.22,2.22,0,0,0,1.46-.82Q208.2,301,208.53,300.82Zm-13-24.1c.11,0,.92.25,2.45.74a4.77,4.77,0,0,1,2.85,1.79c.37.71.67,1.27.89,1.71v.32a2.62,2.62,0,0,1-1,1.63,7,7,0,0,1-1.79,1.3,1.28,1.28,0,0,1-.49.17c-.21,0-.32-.06-.32-.17a7.88,7.88,0,0,1-.82-2.68,8.57,8.57,0,0,0-1.3-3.42,5.08,5.08,0,0,1-.81-1.22C195.18,276.78,195.28,276.72,195.5,276.72Zm23,1.31a5.81,5.81,0,0,1-.24,1.22A34.62,34.62,0,0,0,218,285c0,3.36.87,5.05,2.61,5.05v-.17a4.74,4.74,0,0,0,3.74-1.3,1.42,1.42,0,0,1,1-.49,2.52,2.52,0,0,1,1.47.65l1.46,1.47v.16l-.16.16-5.13.17c-3.31.11-5,2.22-5,6.35-.11,1.41-.16,2.71-.16,3.91,0,2.39.05,4.39.16,6v5.05a4.18,4.18,0,0,1-1.87,2.52,9.28,9.28,0,0,1-1.71,1.06l-.16.16c-.11,0-.16-.22-.16-.65a2.63,2.63,0,0,1-.17-1.3c0-.65.06-1.63.17-2.93V299.19c0-5.42-.55-8.14-1.63-8.14s-2.23.17-3.1.17a12.31,12.31,0,0,0-2.28.16.65.65,0,0,1-.48.16,1.38,1.38,0,0,1-1-.49l-.16-.16c0-.33,1.35-.54,4.07-.65,3-.11,4.61-1.25,4.72-3.42v-2.28c0-1.52-.06-3.09-.16-4.72v-.49c0-1.74.43-2.61,1.3-2.61a2.66,2.66,0,0,1,.81.17,18.54,18.54,0,0,0,2.28,1Z" transform="translate(-61.65 -274.28)"/><path class="cls-1" d="M234.42,303.92a15.06,15.06,0,0,1,2.12.32,17.22,17.22,0,0,1,4.07,1.39l3.58,1.79a2.68,2.68,0,0,1,1.79,2.36v2.28a3.3,3.3,0,0,1-.32,1.46,10,10,0,0,1-.74,1.23c-.27.38-.51.56-.73.56h-.65A.68.68,0,0,1,243,315l-.41-.57-.32-.49c-.11-.16-.41-.65-.9-1.46s-1.17-1.93-2-3.34a12.8,12.8,0,0,0-3.25-3.58,10.6,10.6,0,0,1-2-1.63Z" transform="translate(-61.65 -274.28)"/><path class="cls-1" d="M289.13,311.25v-.49l.16-2V300l-.16-.16-.16-.17H286c-.33,0-.55.33-.65,1v.65c0,.22-.06.33-.17.33H283.6v.16a.48.48,0,0,0-.17.33c0,.21.22.38.65.48s.87.11,1,.33h-1a1,1,0,0,0-.65.16h-.32l-.33-2.76a3.39,3.39,0,0,0-1-2.77v-.17c0-.21.17-.38.49-.48h.82a1.8,1.8,0,0,1,.81.16.47.47,0,0,0,.33.16l.49.33a7.23,7.23,0,0,0,3.25.81h.49a1.22,1.22,0,0,1,.49-.16,1.47,1.47,0,0,0,.81-1V294l-.16-.16a1.22,1.22,0,0,0-.49-.16h-3.42l-.32-.16h-.33a.48.48,0,0,0-.32-.17l-1.14.17-.17-.17a3.48,3.48,0,0,1-1.14.49h-.65l-3.91.33h-.65a2.76,2.76,0,0,1-.65-.17,1.4,1.4,0,0,1-.65-1.14c-.11,0,0,0,.33-.16l.65.16.65-.16.32-.16h.33l.32.16h.33a.14.14,0,0,0,.16.16c1.2,0,1.9-.43,2.12-1.3l.49-1.46.49-1.63a12.62,12.62,0,0,0,.49-1.47,12.16,12.16,0,0,0,.48-3.09V282.1a.47.47,0,0,0-.16-.33l-.16-.16-.33-.33v-.49l-.16-.16c0-.11.22-.21.65-.32a5.27,5.27,0,0,1,1.3-.17,1.11,1.11,0,0,1,.82.33l1,.81.16.17a.14.14,0,0,0,.16.16l.33.32.49.49a1.41,1.41,0,0,1,.16.49,3.81,3.81,0,0,1-.49,1.3,2.93,2.93,0,0,0-.49,1.47c0,.43.6.65,1.79.65.76,0,1.2-.05,1.3-.16l.17-.16.16-.49a1.22,1.22,0,0,1,.16-.49,1.28,1.28,0,0,0,.17-.49v-.65a.47.47,0,0,1,.16-.33v-3.91l-.65-1a3.6,3.6,0,0,0-1-1.14v.16a.43.43,0,0,1-.32-.16v-.17l.16-.32a2.74,2.74,0,0,0,1.3-.49l.49-.16.32-.16a6,6,0,0,1,2.28.65,3.53,3.53,0,0,1,1,.48c.54.44.82.82.82,1.15a.66.66,0,0,1-.33.65l-.33.16a.63.63,0,0,0-.48.16V280l-.33,1.14-.33,1.63v2.11c0,.77.22,1.25.66,1.47.32,0,.75-.27,1.3-.81l1.3-1.31h.16q.17,0,.33.33l.16.16.17.16.16.17h.16a1.89,1.89,0,0,1,1.3,2,.47.47,0,0,1-.16.33l-.16.16-.33.33a.14.14,0,0,1-.16.16l-.33-.33a.51.51,0,0,0-.32-.16,1.82,1.82,0,0,0-.82-.16h-1.79l-1,.16a1.37,1.37,0,0,0-.82.16c-.11,0-.16.06-.16.17V288l-.16.16v3.58c0,.77.27,1.14.81,1.14a.47.47,0,0,0,.33-.16h.16a.51.51,0,0,1,.32-.16h.33l.16.16a.93.93,0,0,0,.65-.16.66.66,0,0,0,.49-.16.15.15,0,0,1,.16-.17l.33-.49h.33l.32-.48.33-.49a.45.45,0,0,1,.32-.17l2.45,2.28c0,.66-.22,1-.66,1l-.81-.16-4.72.16a.47.47,0,0,1-.33-.16h-.81c-.44,0-.65.11-.65.32v.33l.16.16a.47.47,0,0,0,.16.33v.49l-.16,2.11q0,.66.81.66H294c.54-.11.86-.27,1-.49a.48.48,0,0,0,.33-.17l.32-.32v-.16a1.33,1.33,0,0,1,1-.66,1.91,1.91,0,0,0,.65.66l.33.32.81.65a.48.48,0,0,0,.33.17,1.19,1.19,0,0,1,.16.48v.17c-.22.1-.38.65-.49,1.63a21.93,21.93,0,0,0-.16,2.76v3.75a.47.47,0,0,0-.16.32l-.16,1.47a2.85,2.85,0,0,1-1,1.14,2.06,2.06,0,0,1-1.47.65.14.14,0,0,1-.16-.16.7.7,0,0,0-.16-.49l-.65-.81a.48.48,0,0,1-.17-.33l-.81-.81c-.33-.22-.49-.38-.49-.49s.11-.22.33-.33l.65-.16c.76-.11,1.19-.38,1.3-.82v-.65a.47.47,0,0,1,.16-.32l.16-2.12c0-.33.06-.49.17-.49-.11,0-.17-.11-.17-.32a.48.48,0,0,1,.17-.33V301a1.4,1.4,0,0,0-.17-.65,1.46,1.46,0,0,0-.16-.66,2.44,2.44,0,0,0-.32-.49h-2.45c-.65.11-1,.33-1,.66v1l-.17.49v.49l.17.65-.17.65.17.33a5.27,5.27,0,0,1-.17,1.3v4.72l-.16.17a.91.91,0,0,1,.16.65,2.61,2.61,0,0,1,.17.81,28.21,28.21,0,0,0-.33,1,2.8,2.8,0,0,1-.16,1.14q-1,1.14-1.14,1.14c-.33,0-.6-.38-.82-1.14l-.16-.65v-.17c0-.22-.05-.32-.16-.32Zm-6.84-18.41h.33l.16.17.49.16a17.89,17.89,0,0,1,2.28-.33h3.09a.63.63,0,0,0,.65-.48l.17-.33.16-.49a21.85,21.85,0,0,0-.16-3.26,1,1,0,0,0-.82-.65,3,3,0,0,0-1.14-.16l-1.46.16h-.33l-.49-.16a1.46,1.46,0,0,0-1,1l-.17.32v.33a1.88,1.88,0,0,1-.32.49l-1.63,2a.47.47,0,0,0-.16.33v.32A.64.64,0,0,0,282.29,292.84Zm.65,15.64v-4.4a.48.48,0,0,0,.17-.33.63.63,0,0,1,.65-.48c0,.32.21.48.65.48h.49a.46.46,0,0,1,.32.17v5.21c0,1.08-.43,1.63-1.3,1.63s-1.14-.49-1.14-1.14A2.29,2.29,0,0,1,282.94,308.48Zm8.31-22.15v.16a.14.14,0,0,0,.16-.16Zm.49,1.14h.16l-.16-.16ZM301,303.1v-2l-.16-8.47V289.1l-.17-2.44.17-.82a1.78,1.78,0,0,0-.82-1.3,1.78,1.78,0,0,1-.65-1.14.47.47,0,0,0,.33-.16,1.8,1.8,0,0,1,.48-.33,2.55,2.55,0,0,1,.82-.49l2,1,.65.49a.48.48,0,0,1,.17.32,5,5,0,0,1-.17.82l-.16.49-.16.49v2.27l.16,3.91.16,8.15v.16a.48.48,0,0,1,.17.32V301a1.25,1.25,0,0,0-.17.48V302a1.39,1.39,0,0,1-.16.65q-.33,1.47-1.14,1.47a1.09,1.09,0,0,1-.81-.33l-.17-.32Zm1.14-15.47h.32a.16.16,0,0,0-.32,0Zm.08.49c-.06,0-.08.06-.08.16h.16C302.32,288.18,302.29,288.12,302.24,288.12Zm3,22.47a2.76,2.76,0,0,1,1.14.17c.43,0,.82-.71,1.14-2.12a18.82,18.82,0,0,0,.33-3.42v-.49l.16-.33a1.14,1.14,0,0,0,.16-.48v-.33a1.27,1.27,0,0,0-.16-.49v-1.79c.11,0,.16-.11.16-.32v-.49A1.22,1.22,0,0,1,308,300v-.82l.16-1.13-.16-1.63a2.66,2.66,0,0,1,.16-.82c0-.43.06-.65.17-.65v-.65a.66.66,0,0,1-.17-.49L308,293v-5.7l-.16-1L308,286l-.16-1.15v-1.95a3,3,0,0,0,.16-.65l-.16-1.14-.17-.65c0-.22-.05-.33-.16-.33l-.16-.32-.16-.49a3,3,0,0,0-1-1.3v-.33l.65-.33a1.77,1.77,0,0,1,.65-.32,7,7,0,0,1,1.31.65l.48.33h.33l.32.16.66.33c.75.43,1.14.86,1.14,1.3a.45.45,0,0,1-.17.32h-.16l-.16.33a4.27,4.27,0,0,0-.49,1.95l-.16,4.24V287l.16,1.63a.47.47,0,0,0-.16.33c0,.43-.06.65-.17.65h-.32c-.11,0-.17.11-.17.32a2.65,2.65,0,0,0,.17.65.72.72,0,0,1,.16.49l.16.33a8.35,8.35,0,0,1,.33,2.6v.49a.47.47,0,0,1,.16.33v4.07l-.16.65.16,1.63v.65a18.38,18.38,0,0,1,.16,2.28c0,1-.05,2.12-.16,3.42l-.16,3.26a5.52,5.52,0,0,1-1,1.95,9.47,9.47,0,0,1-1.46,1.47l-.33.32-.65.33a.47.47,0,0,0-.33.16h-.16c-.22,0-.43-.16-.65-.49l-1.14-2.44q0-.17-.33-.33a.45.45,0,0,0-.32-.16c0-.11-.11-.16-.33-.16v-.16h-.32l-.17-.17c-.21-.11-.32-.22-.32-.32A9.88,9.88,0,0,1,305.25,310.59Zm4.07-29c0,.11.06.16.17.16s.32,0,.32-.16c0-.33-.11-.49-.32-.49s-.33.06-.33.16A.47.47,0,0,0,309.32,281.61Z" transform="translate(-61.65 -274.28)"/><path class="cls-1" d="M326.75,313.2v-1.3l.16-.65V310.1l.49-9.44c-.11,0-.16-.38-.16-1.14v-2.44l-.17-1.63v-1.63c0-1.19-.22-1.79-.65-1.79a1.81,1.81,0,0,0-1.14.65L325,293a.45.45,0,0,1-.17.32l-.49.65-1.46,1.47-4.72,4.4a.47.47,0,0,0-.33.16l-.49.49c-.54.54-1,.81-1.3.81a.14.14,0,0,1-.16-.16.48.48,0,0,1-.17-.33c0-.1.22-.38.66-.81a5.36,5.36,0,0,1,1.14-1.14,7.34,7.34,0,0,0,.48-.65l.49-.49a5.75,5.75,0,0,1,1.14-1.14c.22-.33.54-.76,1-1.3l1.14-1.14a26,26,0,0,0,2.77-3.75,38.34,38.34,0,0,0,2.6-3.74,9.36,9.36,0,0,1,1.14-2.93l.33-.33.16-.33a6.72,6.72,0,0,1,.33-.81,5.67,5.67,0,0,0,.65-1.47L330,280v-.33a1,1,0,0,0-.48-.81c-.44-.22-.66-.38-.66-.49s.11-.27.33-.49l.49-.49a3.84,3.84,0,0,1,1.3-.32h.33l.32.32,1.14.82c1.19,1,1.79,1.74,1.79,2.28a3.52,3.52,0,0,1-.65,1.95,3.44,3.44,0,0,1-.65.82l-.33.32a1.88,1.88,0,0,1-.32.49,7,7,0,0,1-.49.81l-.49.49-.32.33q-.82,1.31-1.14,1.95l-.17.65v1.31l-.16,2,.33,8a24.91,24.91,0,0,1-.17,2.77l-.32,8.63.16,1a2.65,2.65,0,0,1-1.46,2.44h-.17a1.09,1.09,0,0,1-.81-.33l-.16-.16Zm1.46-15.14h.33a.86.86,0,0,0-1-1A1.06,1.06,0,0,0,328.21,298.06Zm12.7,16.77v-3.26l-.16-11.23c0-1.74-.06-3.37-.16-4.89l-.33-4.89a.43.43,0,0,1-.16-.32c0-.54-.22-.81-.65-.81a2.23,2.23,0,0,0-1.47.32l-.32.49-.33.32a1.72,1.72,0,0,1-.33.49,5.81,5.81,0,0,0-1.13,1.14l-2.28,2.28a8.4,8.4,0,0,1-1.14,1,.47.47,0,0,1-.33.16h-.49V295A5.79,5.79,0,0,0,333.1,293l.65-.82a3.46,3.46,0,0,1,.65-1l.33-.33c.21-.22.32-.38.32-.49q.65-1,1.47-2.28l1.14-2.28c.32-.65.7-1.46,1.14-2.44l.49-1.14.81-1.79a.47.47,0,0,1,.16-.33v-.32a3.94,3.94,0,0,0,.33-1.47c0-.65-.49-1.19-1.47-1.63v-.16c0-.21.27-.49.82-.81a4.91,4.91,0,0,1,1.14-.49,2.78,2.78,0,0,1,1.3.49l1.14.65a.45.45,0,0,1,.32.16l.66.65c.1.22.21.33.32.33h.82c.21.11.32.38.32.81a3.53,3.53,0,0,1-.65,1.3l-.33.49h-.16l-.49.65c-.43.66-.87,1.31-1.3,2l-1.3,1.95a.48.48,0,0,1-.17.33l-.32.32a1.11,1.11,0,0,0-.33.82c0,.11.11.22.33.32l.32.17h4.73a7.45,7.45,0,0,0,1.46-.17h.82l.16-.16h.49l.49-.16q.65,0,1.62-1.14a2.72,2.72,0,0,1,1.63-1c.11,0,.27.11.49.33a2,2,0,0,1,.33.48l1.46,1.47a6.46,6.46,0,0,0,1,.82v.16q0,1-2,1.14l-1.8.16a6,6,0,0,0-1.62.16h-5.21a2.91,2.91,0,0,1-.82.82l-.65.32a.77.77,0,0,0-.65.82,18,18,0,0,0,.32,4.72l.17.32h2.6a1.22,1.22,0,0,0,.49-.16,3.74,3.74,0,0,0,1-.49,4.56,4.56,0,0,0,1.46-1.14l.49-.65a1.14,1.14,0,0,1,.82-.32l.32.32.82,1a10.47,10.47,0,0,0,1,1.14,13.33,13.33,0,0,0,1.31,1.14c.1,0,.16.16.16.49s-.27.38-.82.49l-4.07.16c-1.3.11-2.33.16-3.09.16H345a1.18,1.18,0,0,0-1.14.65v2.93a4.86,4.86,0,0,0,.17,1.47c0,.44.1.65.32.65h4.4l2.12-.32a9.19,9.19,0,0,0,.81-.49,9.4,9.4,0,0,1,1-.82l.16-.16.49-.49.32-.32c.33,0,.87.43,1.63,1.3l1,1.14a11.55,11.55,0,0,0,1,1.14l-.17.32a.47.47,0,0,0-.16.33l-.65.16a9.94,9.94,0,0,0-1.47.17H352a.48.48,0,0,0-.33-.17h-.33a7.83,7.83,0,0,0-1.13-.16h-.82l-.49.16h-.49a5.18,5.18,0,0,0-1.14-.16h-1.14a2.5,2.5,0,0,0-1.62.33,1.29,1.29,0,0,0-.33,1v7.82a.53.53,0,0,1-.33.49.49.49,0,0,1-.32.16l-.16.16a1.43,1.43,0,0,1-1.14.65,1,1,0,0,1-.66-.32Z" transform="translate(-61.65 -274.28)"/><path class="cls-1" d="M361.76,303.92a15,15,0,0,1,2.11.32,17.07,17.07,0,0,1,4.07,1.39l3.59,1.79a2.68,2.68,0,0,1,1.79,2.36v2.28a3.17,3.17,0,0,1-.33,1.46,10,10,0,0,1-.73,1.23c-.27.38-.52.56-.73.56h-.66a.71.71,0,0,1-.57-.32c-.16-.22-.3-.41-.4-.57l-.33-.49c-.11-.16-.41-.65-.89-1.46s-1.17-1.93-2-3.34a12.69,12.69,0,0,0-3.26-3.58,10.27,10.27,0,0,1-1.95-1.63Z" transform="translate(-61.65 -274.28)"/><path class="cls-1" d="M410.28,290.89a1.33,1.33,0,0,0-.33-1,5.91,5.91,0,0,0-1.46.17l-2.44.48h-1.31c-.65,0-1-.21-1.13-.65a.48.48,0,0,0-.17-.32l-.16-.33c-.11-.21-.22-.32-.33-.32v-.49a9,9,0,0,1,2.77-.33l2.61-.16a20.88,20.88,0,0,1,2.11-.16c.44-.22.71-.82.82-1.79v-3.42a5,5,0,0,0-.65-2.77.48.48,0,0,0-.33-.17l-.33-.32a.14.14,0,0,1-.16-.16.47.47,0,0,1-.16-.33,1.92,1.92,0,0,1,1.63-1,1.43,1.43,0,0,1,.65.17l.49.16a6.66,6.66,0,0,0,1.14.33l1.79.48h.32a.53.53,0,0,1,.33.49,2,2,0,0,1-.49,1.14,3.71,3.71,0,0,0-.32,1.3v.49l-.33.49a4.77,4.77,0,0,0-.16,1.14l-.33,2.44a.43.43,0,0,0,.49.49l.33.17h.32a3.28,3.28,0,0,0,2.12-.66l.49-.65.32-.32a.66.66,0,0,1,.49-.17c.11,0,.32.28.65.82a2.42,2.42,0,0,1,.65,1.3c0,.33,0,.49-.16.49l-.16-.16h-.33a.47.47,0,0,0-.33.16h-.81a4.5,4.5,0,0,0-.81.16l-1,.33c-.44.11-.82.22-1.14.32-1.3,0-2,.39-2.12,1.14v1.14a1.22,1.22,0,0,0-.16.49l-.16,1.47v1.14c0,.11.1.22.32.32h.17a4.45,4.45,0,0,0,1-.16,2,2,0,0,0,.81-.33l1.14-1.3a.47.47,0,0,1,.32-.16,4,4,0,0,1,1.47.81c.87.65,1.3,1.2,1.3,1.63l-.33.65v.49a5.9,5.9,0,0,0-.32,1.79l-.16,1.14v.33a1.42,1.42,0,0,0-.16.65,12.25,12.25,0,0,1-.33,2.12v1l-.16,1.3a2.72,2.72,0,0,0-.17.82,17.58,17.58,0,0,1-1,3.91c0,.43-.33.87-1,1.3l-.33.33a1.14,1.14,0,0,0-.48.16l-.49.33h-.33a.47.47,0,0,1-.16.32l-.82.49c-.11,0-.16.1-.16.32-.11,0-.27-.11-.49-.32l-.32-.49a1.28,1.28,0,0,0-.17-.49l-.81-1.3v-.49h-.32c-.22,0-.33-.05-.33-.16l.16-.33h2.44c.87,0,1.31-.32,1.31-1,.43-1.85.76-3.59,1-5.22a32.34,32.34,0,0,0,.49-5.37c0-1.19-.43-1.79-1.3-1.79a3.25,3.25,0,0,0-1.47.65.9.9,0,0,0-1,.82l-.17,1.46-.32,1a2.45,2.45,0,0,0-.33,1l-.32,1.3-1,1.79-.16.32q-.17.5-.33,1.14l-.16.17v.32l-.16.49-.33.65-.49.49-.16.49c-.22.22-.33.38-.33.49l-.16.32a1.8,1.8,0,0,0-.32.49l-.33.65c-.11,0-.27.17-.49.49l-.81.82a10.24,10.24,0,0,1-.82,1,4,4,0,0,1-1,.49L402.14,314H402l-.17.17h-.16a.53.53,0,0,1-.49.32,7,7,0,0,1,1.79-1.79,2.74,2.74,0,0,0,1-.81,4.31,4.31,0,0,0,1-1,6,6,0,0,0,.81-1.3l.16-.33L407,307l.82-1.63.49-1.79a41.73,41.73,0,0,0,1.79-9.12ZM422,304.4a.48.48,0,0,0-.17-.32c-.11-.22-.22-.33-.32-.33a1.23,1.23,0,0,0-.49.17l-.33.16a1.34,1.34,0,0,1-1-.65l-.32-.49v-.33a.67.67,0,0,1,.32-.65l.49-.16.65-.16c1-.33,1.47-.87,1.47-1.63a6.79,6.79,0,0,0-.16-1.63V294.8a9.49,9.49,0,0,0,.16-1.47V293a1.42,1.42,0,0,0-.16-.65c0-.44-.16-.66-.49-.66a1.32,1.32,0,0,0-1,.66,1.78,1.78,0,0,1-1.14.65v-.49l.65-1.14,1.31-2.28.49-.82a2.68,2.68,0,0,0,.32-1.13,3.63,3.63,0,0,0,.81-1.47l.17-.82.32-.81.82-1.95a7.55,7.55,0,0,0,.32-2v-.49a2.68,2.68,0,0,0-.32-1.13l-.17-.33-.16-.16a1.22,1.22,0,0,1-.16-.49c0-.44.32-.65,1-.65l1.78.48a11,11,0,0,1,1.8.66,2.63,2.63,0,0,1,1,.81,29.53,29.53,0,0,1-2.45,4.23,1.35,1.35,0,0,1-.16.49l-.49,1v.16l-.16.16-.16.17v.49c0,.22.16.32.48.32a8.19,8.19,0,0,0,1.63-.16l3.42-.49a10.78,10.78,0,0,1,1.79-.16l.49-.49.33-.33.16-.16a10.17,10.17,0,0,1,1.3-1.14c1.2,0,2.39.93,3.59,2.77v.16c0,.33-.28.55-.82.65h-1.79l-1,.17h-.49l-1.46.32h-1.14l-1-.16c-.11,0-.27.11-.49.33l-.32.16a.47.47,0,0,0-.33.16h-1.3c-.87.11-1.3.33-1.3.65,0,.11.1.27.32.49a1.06,1.06,0,0,0,.49.49l.82.49a1,1,0,0,1,.48.81l-.16.65-.16.33v.32a3.61,3.61,0,0,0-.16,1.14v1c0,1.41.27,2.12.81,2.12a1,1,0,0,0,.65-.33l.33-.16.16-.16a1.76,1.76,0,0,0,.65-.33,5.22,5.22,0,0,0,.65-.81,1.88,1.88,0,0,0,.33-.49v-.33l.32-.49a1.27,1.27,0,0,1,1.3-1h.49l.82.32c.65.11,1,.33,1,.65v.33l-.16.16-.16.17V295a1.31,1.31,0,0,1-.16.81,10,10,0,0,0,.16,2v1.14l-.16.49v4.07a4.48,4.48,0,0,1-1.14,2.12,7.25,7.25,0,0,0-1,1.13,1.59,1.59,0,0,1-.82.33c-.32,0-.59-.22-.81-.65l-.16-.65a1,1,0,0,0-.16-.65.48.48,0,0,0-.33-.17l-.16-.16a.66.66,0,0,1-.17-.49h.17l.65-.16a1.14,1.14,0,0,0,1-1v-5.86c-.1-.65-.32-1-.64-1a1,1,0,0,0-.66.17l-.65.49-.32.32-.33.16-.33.17-.32.16a3.89,3.89,0,0,0-.49,2.28v6.19l-.49,1.63-.32.81v.49c0,.22.16.38.49.49h4.06a25.48,25.48,0,0,0,4.24-.65l.32-.17a1.41,1.41,0,0,1,.49-.16l1.31-2.77.32-.32a10.53,10.53,0,0,0,.33,2.6,11.61,11.61,0,0,1,.32,2.12v.81a.29.29,0,0,1-.32.33,1.39,1.39,0,0,0-.65.16.47.47,0,0,0-.33.16l-.49.17h-2.76l-.49.16-.82.16a5.25,5.25,0,0,0-1.3.33h-1.14l-1.47.32h-2.6l-.33.17a1.41,1.41,0,0,1-.49.16,6.22,6.22,0,0,1-2.11-.49,4.3,4.3,0,0,1-2.77-1.95,3.63,3.63,0,0,1-.49-1.31Zm2.27-5.86c.11.44.27.65.49.65l1.14-.16q0-.33.81-.81c.44-.33.66-.6.66-.82v-1.63l.16-1c0-.22,0-.33.16-.33v-.32l-.16-.33a7.64,7.64,0,0,1-.16-1.79,32.63,32.63,0,0,1-.17-3.58c0-.33-.11-.49-.32-.49h-1.14l-.49.16h-.32a.47.47,0,0,1-.33.16c-.44,0-.87.33-1.3,1l-.33.82c-.22.32-.38.48-.49.48v.49l.49.82a1.42,1.42,0,0,1,.16.65l.17.16.48.33c.55.43.82.81.82,1.14a.47.47,0,0,1-.16.32.48.48,0,0,0-.17.33Zm0,3.59c0,1.95.06,3.8.17,5.53,0,1.2.43,1.79,1.3,1.79,1.08,0,1.63-.43,1.63-1.3l-.17-4.23v-.49l.17-1.47-.17-.81a.66.66,0,0,0-.16-.49c0-.11-.11-.16-.33-.16h-.48l-.49.32-.32.17a3.35,3.35,0,0,0-1.15.65Zm2-17.75.16-.33h-.16Zm7.81,21h.33a.15.15,0,0,0-.16-.16A.15.15,0,0,0,434.05,305.38Z" transform="translate(-61.65 -274.28)"/><path class="cls-1" d="M461.9,310.59H459c-1.09.11-2,.17-2.61.17h-.81l-1.63.32a1.47,1.47,0,0,1-.65.17,6.93,6.93,0,0,0-1.31.16l-1.62.32a13.48,13.48,0,0,1-1.8.17,8.21,8.21,0,0,1-1.46.16c-.87,0-1.41-.22-1.63-.65v-1.14a1.22,1.22,0,0,1-.16-.49.51.51,0,0,0-.16-.33v-.32a.48.48,0,0,1-.17-.33l-.16-.16a.14.14,0,0,1,.16-.16l.17-.17h1.95l3.09.17a7.47,7.47,0,0,0,1.47.16l1-.16,4.72.16a3.09,3.09,0,0,0,1-.16l1.46-.17h.81a6.4,6.4,0,0,0,.82-2.11,9.7,9.7,0,0,0,.16-2.12v-5.86l.17-1.14v-2.61l-.17-1.63.17-7.65v-.81c-.22-.65-.55-1-1-1h-2.44q0,.17-.33.33h-.16l-1-.17a1.8,1.8,0,0,1-.81.17h-.82l-.65.16a1.22,1.22,0,0,1-.49.16h-.49a1.39,1.39,0,0,1-.65.16h-2.11a5.08,5.08,0,0,0-.66-1.79,3.6,3.6,0,0,0-1.3-1.46c0-.44.11-.65.33-.65a3,3,0,0,1,1,.16l.82.16q1.62.17,4.23.33h1.47l9.12.16c1.51.11,3.09.16,4.72.16h.32a6.08,6.08,0,0,0,3.1-1.14,4,4,0,0,1,1-1,2,2,0,0,1,1-.49c.22,0,.43.16.65.49l.17.32.16.16a1.72,1.72,0,0,0,.32.49l.33.33.16.16.33.33a2.92,2.92,0,0,1,.81,1.79,1.59,1.59,0,0,1-.32.81,1.33,1.33,0,0,1-.82.49,4.21,4.21,0,0,1-1.3-.16,3,3,0,0,0-1-.16h-.49l-.81-.17h-.49a3,3,0,0,1-1-.16h-1c-.44,0-.71-.11-.82-.33q0,.33-.81.33h-2.28l-.81.33h-.33v.16c0,.11.16.27.49.49.54.32.81.65.81,1a1.14,1.14,0,0,1-.32.82l-.33.32-.81.49a.48.48,0,0,0-.17.33,2,2,0,0,0-.32,1.14v10.26a23.94,23.94,0,0,1,.49,5.21l-.17,1.46a4.09,4.09,0,0,0,.17,1.3,1.32,1.32,0,0,0,1.46,1.31h7.33a1.56,1.56,0,0,0,.65-.16h.16l.17-.17a.47.47,0,0,0,.32-.16,1.82,1.82,0,0,0,.82-.16l.81-.33a3.76,3.76,0,0,1,1.63-.49l1.14,1.14a1.88,1.88,0,0,1,.32.49l.49.65a2.26,2.26,0,0,1,1.14,2.12v.49a.67.67,0,0,1-.16.49c0,.43-.16.65-.49.65a4,4,0,0,1-1.63-.49,6.23,6.23,0,0,0-2.44-.81H475.9c-.32-.11-.71-.22-1.14-.33h-1.63l-1.63-.16h-1.79l-3.58-.17a12,12,0,0,0-1.79-.16Z" transform="translate(-61.65 -274.28)"/><path class="cls-1" d="M488.93,298.38v-.32a1.46,1.46,0,0,1-.16-.66l-.17-.32a4.85,4.85,0,0,0-1.3-2.28v-.33h2.77a1.52,1.52,0,0,1,.65-.16,2.87,2.87,0,0,1,.81.16h3.75l1-.16H500l.49.16c0-.1.16-.16.49-.16a2.55,2.55,0,0,1,.81-.16l6.35-.33h6.52l1.3-.16h2.12a3.68,3.68,0,0,1,1-.65l1.14-.65q.16,0,.33-.33l.32-.16h.33a2,2,0,0,1,1.14.49l1.63,1.62c.1.11.27.28.49.49l.81.49a2.57,2.57,0,0,1,.81,2.12c0,.11-.11.27-.32.49l-.49.49a1.34,1.34,0,0,1-.81.48h-1a.47.47,0,0,1-.33-.16l-.32-.16-.49-.33a1.22,1.22,0,0,1-.49-.16l-.65-.33a14.23,14.23,0,0,1-1.79-.48h-.82l-.65-.33h-.65a13.84,13.84,0,0,1-2-.16h-.49l-1.3-.17h-7.17a8.28,8.28,0,0,0-1.63.17l-2.11.32a2.72,2.72,0,0,1-.82.17h-2.28a3,3,0,0,1-1.95.65h-.16a.48.48,0,0,1-.33-.17,9.2,9.2,0,0,1-5.37,1.47l-1.14-.33-.17.17-.16.16a.47.47,0,0,1-.16.32h-.65a.47.47,0,0,1-.33-.16Zm8.63-3.42c-.22,0-.33.06-.33.16h.33Z" transform="translate(-61.65 -274.28)"/><path class="cls-1" d="M550.8,308.31a1.25,1.25,0,0,0-.48.17h-1.47a3,3,0,0,1-1,.16,9.11,9.11,0,0,0-.81-.65,1.06,1.06,0,0,1-.49-.49.47.47,0,0,1-.16-.33l.16-.16h2.28a.66.66,0,0,0,.49.16l.16-.16h2.61l.32-.33.33-.32v-8.47l-.16-.49a.53.53,0,0,0-.49-.32c-.11,0-.27.11-.49.32s-.49.44-.49.66l-.65,1.13-.81,1-.66,1.14-.48.82-.17.16-.49.49a.92.92,0,0,0-.32.65,4.54,4.54,0,0,1-.81,1.79L545.43,307l-.49.16-.32.33v.33l-.65.81-.82.81-.81,1.31-.33.32a6.41,6.41,0,0,1-1,.82l-1.63,1.46a3.74,3.74,0,0,1-2,1.14,1.34,1.34,0,0,1,.49-.81c.43-.33.65-.6.65-.82a.66.66,0,0,0-.16-.49,2,2,0,0,1-.33-.48l-.32-.33c-.22-.11-.33-.22-.33-.32a1.19,1.19,0,0,1-.49-.82v-1.3l.17-.82-.17-.81L536.8,302l.16-1.14-.16-1.95v-6.19c0-.65-.27-1-.81-1a8.72,8.72,0,0,0-2.61,2.94l-3.58,3.58c0,.22-.22.54-.65,1a.48.48,0,0,0-.33.17l-.16.16L528,300a2.86,2.86,0,0,0-.82.81l-.32.33-.16.16c-.44,0-.66-.16-.66-.49l.49-.48.65-.82,1.47-1.63a5.28,5.28,0,0,0,1-1.3,14.33,14.33,0,0,1,1.3-1.79l1.63-2.28,1-1.14a5.15,5.15,0,0,0,.48-1.14l.65-.65.66-1.47.32-.32a2,2,0,0,1,.49-.82q1.14-2,2.44-3.91l.65-1.46a6.3,6.3,0,0,1,.33-.82,1.39,1.39,0,0,0,.16-.65l-.32-2.11c0-.22.21-.33.65-.33l.32.33a.47.47,0,0,0,.33.16l.49.33.49.16a2.7,2.7,0,0,1,.65.49l.49.65a7.81,7.81,0,0,1,1,2.11,2.35,2.35,0,0,1-.49,1.47.51.51,0,0,0-.32.16l-.33.33-.16.16-.33.33-.32.48-.33.17-.16.16-.49.49a3.57,3.57,0,0,0-1.3,2.28v.32l.32.82v.33l-.16,1.46v.33l.16,2.44v1.14a7.73,7.73,0,0,0-.16,1.14v1.63c.11,1.08.16,2,.16,2.77l-.16,2.11c0,.22.06.71.16,1.47v3.42a1.22,1.22,0,0,1-.16.49v2.76c0,.33.11.49.33.49s.21-.11.32-.32a1.06,1.06,0,0,0,.49-.49c.33-.44.6-.82.82-1.14a2.37,2.37,0,0,1,.65-1.3,1.66,1.66,0,0,1,.32-.49l.49-.49a5.37,5.37,0,0,0,1-1.63l.49-.82.65-1a12.61,12.61,0,0,1,1.3-3.09l.82-1.31.16-.16a.51.51,0,0,0,.16-.33l.33-1c.21-.44.43-.92.65-1.47l.65-1.46c.54-1.09,1-2,1.3-2.77,0-.87-.49-1.31-1.46-1.31a16.47,16.47,0,0,1-5.87,1l-1.14-1.14c-.43-.32-.65-.54-.65-.65a.45.45,0,0,1,.17-.32h3.09c.11,0,.16-.06.16-.17v-.32a.48.48,0,0,1,.33-.17.7.7,0,0,1,.49-.16,1.48,1.48,0,0,1,.49.16l.49.33,3.41.16.65-.16c.66-.11,1-.33,1-.65l.33-2.28V283.4a20.18,20.18,0,0,0-.16-2.61,13.15,13.15,0,0,0-1.15-4.23v-.16l.17-.16a1.23,1.23,0,0,1,.49-.17l1.46.17a2.32,2.32,0,0,1,1.3.65,2.57,2.57,0,0,0,1.15.65,1.34,1.34,0,0,1,.81.49,1,1,0,0,1,.65,1,1.4,1.4,0,0,1-.65,1.14,1.3,1.3,0,0,0-.65,1l.16,2.93-.16.49V285l.16.65V286l.16.65v.65a1.5,1.5,0,0,0,.82,1h2l2.93-.32a4.08,4.08,0,0,0,1-.49,3.49,3.49,0,0,1,.65-.81l.16-.17.49-.65a1,1,0,0,1,.65-.32c.33,0,.76.32,1.31,1a1.18,1.18,0,0,0,.16.49l.33.33a1.68,1.68,0,0,0,.32.65,2.24,2.24,0,0,1,.81,1.47v.16l-.32.32h-8.47c-.65.11-1,.22-1,.33v.65a2.61,2.61,0,0,0,.17.81c.21,1,.43,1.9.65,2.77a31.11,31.11,0,0,0,1.46,3.42,15.79,15.79,0,0,0,2.28,3.42l2.28,2.28.82.81a1.62,1.62,0,0,0,.65.33v-.16l1.3.65,3.42,1.79a7.36,7.36,0,0,1,1.3.65c.55.33.82.55.82.65s-.06.33-.17.33H572a18,18,0,0,0-4.56.65,4.54,4.54,0,0,1-1.79-.81l-1.3-.82a4.28,4.28,0,0,1-1.14-.81,12.37,12.37,0,0,1-2.12-2,21,21,0,0,1-1.62-2.76l-.17-.33a.47.47,0,0,0-.16-.33l-.33-.65c-.22-.54-.43-1-.65-1.46v-.82c-.11-.21-.22-.43-.32-.65l-.33-2.12a9.11,9.11,0,0,1-.32-1.3v-.65l-.17-.65v-1.3a1.22,1.22,0,0,0-.16-.49c0-.76-.22-1.14-.65-1.14H556c-.11,0-.17.05-.17.16v2.44l.33,5.38v6.35c.11,1,.38,1.46.81,1.46a2.37,2.37,0,0,0,1.31-.65q.81-.81,1.14-.81a1.19,1.19,0,0,1,.48.16,1.88,1.88,0,0,1,.33.49l.65.81a.47.47,0,0,0,.16.33l.33.16a1,1,0,0,1,.16.65c0,.55-.38.82-1.14.82h-3.58a2.66,2.66,0,0,1-.81.16l-.33,3.75a1.47,1.47,0,0,0-.32.48v.49q0,.17-.33.33h-.16l-.33.32-.49,1c-.11.43-.32.65-.65.65a1.7,1.7,0,0,1-.65-.32c-.22-.22-.33-.39-.33-.49V308.8a.47.47,0,0,0-.16-.32.66.66,0,0,0-.49-.17Z" transform="translate(-61.65 -274.28)"/><path class="cls-1" d="M575.07,315.64a.14.14,0,0,1-.16-.16c0-.33.48-.76,1.46-1.3,1.19-.55,1.79-1.2,1.79-2v-1.46c0-.22-.19-.38-.57-.49s-1-.27-1.87-.49a1.46,1.46,0,0,1-1.3-1.47v-2.93c0-1.08.59-1.63,1.79-1.63h3.58c1.3,0,2,.71,2,2.12v5.05a4.12,4.12,0,0,1-3.09,4.07,8.83,8.83,0,0,1-2.93,1A.64.64,0,0,1,575.07,315.64Z" transform="translate(-61.65 -274.28)"/><path class="cls-1" d="M617.73,310.76h3.42l.32-.17.33.33.33-.16.32-.17.16.17a3.11,3.11,0,0,1,1-.17l1.14.17h1.14l1-.33h5.21a2.6,2.6,0,0,0,1.46-.81v-3.75a5.83,5.83,0,0,0-.48-2.77l-4.73.17-.81-.17a4.7,4.7,0,0,0-1.14.17,4.29,4.29,0,0,1-1,.16,1,1,0,0,1-1.14-1.14c.22-.22.38-.33.49-.33a9.8,9.8,0,0,1,1.47.17h1.63c.1-.11.37-.17.81-.17h1.3l2-.16c.86,0,1.3-.54,1.3-1.63v-.65a6.84,6.84,0,0,1-.16-1.3.48.48,0,0,0-.17-.33v-.32a.66.66,0,0,0-.49-.17,1,1,0,0,0-.65-.16h-3.9a3.88,3.88,0,0,1-1.31-.32,2.57,2.57,0,0,0-1.14-.33,13.26,13.26,0,0,1-2.6,2c-.76.55-1.42,1-2,1.31a3.86,3.86,0,0,1-1.46.49l-3.75,1.46a5,5,0,0,1-2.11.65.64.64,0,0,1-.49-.16c0-.22.1-.33.32-.33l.33-.16H614c.11,0,.27-.11.49-.33l.33-.16,1-.49,1-.65a1.73,1.73,0,0,0,1-.32l.81-.66a7.76,7.76,0,0,0,1.31-.81l1.14-1.14a2.33,2.33,0,0,0,.48-.32l1-.82a3.76,3.76,0,0,0,1.3-1.3q.16,0,.33-.33l.33-.32a.48.48,0,0,0,.32-.17c.11-.21.22-.32.33-.32l.32-.33.33-.32a.47.47,0,0,1,.16-.33l1-.81a1.66,1.66,0,0,1,.32-.49,1.88,1.88,0,0,0,.49-.33.48.48,0,0,1,.17-.32l.16-.33.16-.49.33-.32.32-.16a10.72,10.72,0,0,0,.65-1.15l.33-.65a1.45,1.45,0,0,1,.16-.65l.33-.49a1.52,1.52,0,0,0,.16-.65v-.32l-.16-.17-.17-.32v-.33a.48.48,0,0,1,.17-.32,1.65,1.65,0,0,1,.65-.33,4.64,4.64,0,0,1,1.14-.16,1.55,1.55,0,0,1,1.3.65.47.47,0,0,0,.16.32l.17.33a1.66,1.66,0,0,0,.32.49h.33l.49.49c.43.22.65.38.65.49a.47.47,0,0,1-.16.32.48.48,0,0,0-.33.17,4.19,4.19,0,0,1-1.79,2l-1,.81-.81.82-.33.32c-.22.11-.32.22-.32.33a5,5,0,0,1-.82,1l-1,.81c-.66.65-1,1.14-1,1.47v.16a.53.53,0,0,0,.32.49,1.66,1.66,0,0,0,.49.32H629l.65.16h.16l.49-.16h4.23a12.63,12.63,0,0,1,1.47-.32h.65a2.65,2.65,0,0,1,.65-.17h.49a2.61,2.61,0,0,0,1.14-.32c.87-.33,1.3-.82,1.3-1.47a3.06,3.06,0,0,0-.32-.81l-.49-.82a20.1,20.1,0,0,1-3.1-5.37l-.49-2.12a6.62,6.62,0,0,0-.48-1.95c0-.22-.22-.38-.66-.49a1.52,1.52,0,0,0-.65-.16h-.49l-1.3.32a3.6,3.6,0,0,0-1.14.17l-2,.49a3.35,3.35,0,0,1-1,.16,2.51,2.51,0,0,1-1.14-.65l-.49-.49a1.22,1.22,0,0,1-.16-.49V281h2.93l.81-.17a8,8,0,0,1,1.15-.16h.32l.33-.16a3,3,0,0,0,1-.16c.44,0,.65-.06.65-.17l2-1.79a.14.14,0,0,1,.16-.16h.16a.51.51,0,0,1,.33.16l.49.17c1.08.43,1.63,1,1.63,1.62a1.76,1.76,0,0,1-.66,1.14,3,3,0,0,0-.48,1.47l.16,1.14a.66.66,0,0,0,.16.49c0,.11.11.22.33.32l.16.33a.47.47,0,0,1,.16.32,14.06,14.06,0,0,0,4.4,5c.11.22.27.55.49,1a5.74,5.74,0,0,1,.81.65l.17.16h.16a.52.52,0,0,1,.49.33,2.17,2.17,0,0,0,1.14.49l.16.16h.49a2.07,2.07,0,0,1,.49.33,14.16,14.16,0,0,0,2.93,1.79,1.23,1.23,0,0,1,.49-.17l.32.33.33.16.32.33a2.68,2.68,0,0,1,1.14.32l1,.17h.49a2.55,2.55,0,0,0,.81.16q.33.17.33.33c0,.21-.22.38-.65.48l-1.3.17-1.31.49a7.66,7.66,0,0,1-1.3.16H650l-.65.49a4.29,4.29,0,0,0-.65.48,3.06,3.06,0,0,1-1,.17h-.49a2.92,2.92,0,0,0-1.3-1l-.33-.16a.47.47,0,0,0-.32-.16,1.06,1.06,0,0,1-.49-.49,7.62,7.62,0,0,0-1.3-1.31,2.61,2.61,0,0,0-1.14-.65c-.11,0-.27.11-.49.33h-.49l-.33.16h-.32a1.45,1.45,0,0,1-.65.16l-.49.17a4.12,4.12,0,0,0-2.77.65,3.16,3.16,0,0,0-.49,2.11V300c0,.87.33,1.36,1,1.46h1.79l1.3-.16a4.08,4.08,0,0,0,1-.49,1.22,1.22,0,0,0,.49-.16l.16-.16c0-.11.06-.16.17-.16a.9.9,0,0,1,.65-.17h.48l1,1,.33.16a1,1,0,0,1,.32.65.56.56,0,0,1-.49.49H640a5.32,5.32,0,0,1-1.3.16,4.2,4.2,0,0,0-1.31.17c-.43.11-.65.22-.65.32v3.75c.11,0,.16.11.16.32v1.63l.17.49c0,.22,0,.33.16.33a.43.43,0,0,1,.32.16l.33.16h2.61a10,10,0,0,0,2-.16,12.37,12.37,0,0,0,3.42-.81,1.88,1.88,0,0,1,.49-.33l.49-.49a2.2,2.2,0,0,1,1.3-.49.46.46,0,0,1,.32.17.66.66,0,0,1,.49.16l.82.65a1.57,1.57,0,0,1,1,1.46c0,.55-.39.93-1.14,1.15H647.2l-7-.17a2.45,2.45,0,0,1-1,.33h-.32l-.33-.16H635a1.22,1.22,0,0,0-.49.16H634a1.41,1.41,0,0,1-.49.16h-2.27l-1,.16h-.65c-.22,0-.33.06-.33.17h-2.61l-1.3.48-4.23.49L620,313h-.33a1,1,0,0,1-1-.66l-.82-1-.16-.33Zm16.93-10.1H635a.14.14,0,0,0-.16-.16C634.72,300.5,634.66,300.55,634.66,300.66Zm7.82-7.49a.14.14,0,0,0,.16.16v-.16Z" transform="translate(-61.65 -274.28)"/><path class="cls-1" d="M674.72,314.5l.16-4.07v-1l.17-1.95v-1.95c0-.66-.11-1-.33-1h-1.14a.43.43,0,0,1-.16.32l-.81.82c-.11,0-.22.11-.33.32l-.33.33a7.45,7.45,0,0,1-2,1.3L668,309a.47.47,0,0,0-.32.16h-.32a.47.47,0,0,1-.33.16l-.33.16c0,.22-.22.44-.65.65a2.74,2.74,0,0,1-1.3.49,2.89,2.89,0,0,1-1.14,1.14l-.82.17a.49.49,0,0,1-.32.16l-1.14.81a.48.48,0,0,0-.33.17l-1.46.65-.33.32a2.61,2.61,0,0,1-.81.17l-.33-.17a11.11,11.11,0,0,1,1.63-1.14l1-.49.81-.48c.87-.65,1.68-1.25,2.44-1.8.87-.75,1.63-1.46,2.28-2.11l.66-.65a2.36,2.36,0,0,1,.65-.49l.48-.33.17-.32.32-.33.82-1a.14.14,0,0,0,.16-.16l.33-.33c.65-.65,1-1.13,1-1.46l-.16-.49c0-.21-.06-.32-.16-.32l-.16.16-1.14-.16H669l-.65.16h-.81l-.33-.16V302h-.32v.17h-.33a12.17,12.17,0,0,1-2.28.16H664l-.65-.16h-.49l-1.62.16-.17-.16.17-.17a.48.48,0,0,0-.33.17,1.22,1.22,0,0,1-.49.16.52.52,0,0,1-.49-.33v-.65l.17-.16h2.28a2.33,2.33,0,0,0,1-.33.66.66,0,0,1,.49.17l.16.16h.17l.32-.16H665a1,1,0,0,0,.65.16h1.63v.49a1.88,1.88,0,0,1,.33-.49H668v1l.33-.33a.66.66,0,0,0,.49-.16v-.17a.14.14,0,0,1,.16-.16.51.51,0,0,1,.33.16l1-.16.16.16h3.74c.65,0,1-.7,1-2.11v-1a.7.7,0,0,0-.16-.49c-.11-1-.55-1.46-1.31-1.46v.16h-.65a.47.47,0,0,0-.32.16,1.28,1.28,0,0,0-.49.17l-.33.32h-.32l-1,.33h-.32l-.82.32a4.53,4.53,0,0,0-1,.17,2.58,2.58,0,0,1-1,.32l-1,.16a4.53,4.53,0,0,1-1,.17,19.46,19.46,0,0,1-2,.16l-.82.32h-1.46a1.28,1.28,0,0,1-.49.17c-.54,0-.81-.17-.81-.49l.48-.16h1.8a.94.94,0,0,0,.65-.17l.49-.16.32-.16a1.45,1.45,0,0,1,.65-.16,1.4,1.4,0,0,0,.65-.17,1,1,0,0,0,.66-.16c.21,0,.32-.05.32-.16a.48.48,0,0,0,.33-.17l.65-.16a3.55,3.55,0,0,1,1.14-.32l2.77-1.31h.16l1.47-.81q.15,0,.48-.33l.33-.32,1.46-.82c.66-.32,1-.65,1-1,0-.55-.43-.93-1.3-1.14a2.27,2.27,0,0,0-1-.17h-1q0,.17-.33.33l-2.12,1.3a.14.14,0,0,0-.16-.16l-.16.16-.49.33a3,3,0,0,1-1.47.49c-.11,0-.22-.11-.32-.33v-.33a1.7,1.7,0,0,1,.32-1,.51.51,0,0,1,.16-.33l.66-.65a.14.14,0,0,1,.16-.16.47.47,0,0,0,.16-.33,1.62,1.62,0,0,0,.33-.65.64.64,0,0,0-.49-.65,1.22,1.22,0,0,0-.49-.16h-2.93a.66.66,0,0,1-.49-.17h-.32l-.33.17h-4.56a.93.93,0,0,1-.65-.33c-.33-.22-.49-.43-.49-.65a.14.14,0,0,1,.16-.16,1.81,1.81,0,0,1,.82-.17,9.84,9.84,0,0,1,1.79-.16h1.3a1,1,0,0,0,.65-1v-.16l.17-1.79.16-1.3v-.49a1.22,1.22,0,0,0,.16-.49V280a3.37,3.37,0,0,1-.16-1.3,7.87,7.87,0,0,0-.16-1.31v-.65a2.65,2.65,0,0,1-.17-.65.52.52,0,0,1,.49.33l.16.49.49.48.33.33a1.65,1.65,0,0,1,.32.82,4.79,4.79,0,0,1,.66.81l.16.49a1.88,1.88,0,0,0,.32.49,1.83,1.83,0,0,0,1.79,1h1.47a.51.51,0,0,1,.33-.16h2.6a2.09,2.09,0,0,0,1.3-.81h-.16l.16-1.79v-1.31l-.16-.81v-1.79l.16-.33.33.16a.48.48,0,0,0,.33.17l.48.16h.17a2,2,0,0,0,.81.49l1.47.32a1.34,1.34,0,0,1,.49.17,3.25,3.25,0,0,1,1.13.81,1.22,1.22,0,0,1-.16.49l-.32.49a1.87,1.87,0,0,0-.33,1.3c0,1.2.38,1.79,1.14,1.79a22.23,22.23,0,0,0,2.44-.16h.33l2-.16a2.33,2.33,0,0,0,1.63-.82c.43-.43.76-.65,1-.65a1.59,1.59,0,0,1,.65.16l.49.49a19.38,19.38,0,0,1,1.46,1.3,3.33,3.33,0,0,1,.65,1,1.22,1.22,0,0,1-.16.49,1.06,1.06,0,0,1-.49.49,2.51,2.51,0,0,1-1.14.65l-.65.33a1.22,1.22,0,0,0-.49.16.43.43,0,0,0-.32.16,11.46,11.46,0,0,1-1.47.49l-.16.16h-.16a1.22,1.22,0,0,1-.49.16l-.33.33a1.45,1.45,0,0,0-.16.65v.49l1.14,1.14h.49l.65.16h.33a5.44,5.44,0,0,0,2.44-.65,27.25,27.25,0,0,0,2.6-1.3l.66-.49a.91.91,0,0,1,.65-.33.48.48,0,0,1,.32.17l.65.81a.15.15,0,0,1,.17.17l.81.81a1.09,1.09,0,0,1,.49,1c0,.11-.22.21-.65.32h-1a17.47,17.47,0,0,0-2.28.16l-3.58.33h-2.12a3.81,3.81,0,0,0-1.63.82l-.81.48-.65.65-.33.33c-.22.11-.32.22-.32.33a.93.93,0,0,0-.49.81c0,.44.32.76,1,1a5.21,5.21,0,0,0,.82.32l2.12.49a6.72,6.72,0,0,1,.81.33,1.47,1.47,0,0,1,1,1.3,2.44,2.44,0,0,1-1.63,2.12h-.82l-.48-.33-2.93-2.12a3.82,3.82,0,0,0-1.31-.65,2.2,2.2,0,0,0-1.3-.49,1.74,1.74,0,0,0-1,.33l-.16-.33a.47.47,0,0,0-.16.33.48.48,0,0,1-.17.33v.16H677l-.32.32a.68.68,0,0,0-.17.49.91.91,0,0,0,.33.65l.32.33.66.49a.51.51,0,0,1,.16.32.93.93,0,0,1,.32.66v.65l-.16.32v.33a6.29,6.29,0,0,0,.65,1.63,2.68,2.68,0,0,0,2,.65H685c1.19-.33,2.22-.65,3.09-1l.66-.32.81-.33a2.87,2.87,0,0,1,1.47-.49,2.78,2.78,0,0,1,1.3.49q0,.5.81.81c.43.22.65.49.65.82a.43.43,0,0,1-.49.49l-3.42.16h-1.13l-1-.16h-1.14a7.47,7.47,0,0,1-1.47.16c-.54.11-1,.22-1.3.32s-.65.22-.65.33a1.62,1.62,0,0,0,.33.65,6.94,6.94,0,0,1,1,.81A7,7,0,0,0,687.1,306c.54.22,1.14.49,1.79.82l1.3.65a9.61,9.61,0,0,0,3.09.49,4,4,0,0,1,1.15.32,2.57,2.57,0,0,0,1.13.33c0,.22-.16.43-.48.65l-.65.33a.47.47,0,0,0-.33.16.47.47,0,0,0-.33.16l-.16.33-.65.32-.33.17-.16.16-.16.16a1.33,1.33,0,0,1-1,.65v.17h-.16a.51.51,0,0,1-.33.16h-.16l-.16-.16a.45.45,0,0,0-.17.32l-.32-.16-.17-.16a.29.29,0,0,1-.32-.33h-.49l-.32-.32-.17-.17a.47.47,0,0,0-.32-.16q-.16-.33-.33-.33a4.92,4.92,0,0,1-3.42-1.95,4.78,4.78,0,0,0-.65-.81l-1-1.31a2.36,2.36,0,0,1-.49-.65l-.16-.49c-.11-.32-.22-.49-.32-.49l-.17-.81a.66.66,0,0,0-.16-.49q-.33-1.14-.81-1.14l-1.47-.16c-.54.22-.81.92-.81,2.11v7c0,.32-.06.49-.17.49v.32l.17.16v1a3.55,3.55,0,0,1-.17,1.14,1.92,1.92,0,0,1-1.14,1.47.63.63,0,0,0-.48.16l-.33.33a1.66,1.66,0,0,0-.49.32.66.66,0,0,1-.49.16v-.48a.43.43,0,0,0-.32.16.15.15,0,0,1-.17-.16l-.16-.33ZM660.07,299a.16.16,0,1,0,.16-.16A.14.14,0,0,0,660.07,299Zm.32,0a.14.14,0,0,0,.16.16v-.32A.14.14,0,0,0,660.39,299Zm1.47,3.1H662V302ZM664,277.21c0,.11.06.16.17.16a.16.16,0,0,0,0-.32C664,277.05,664,277.1,664,277.21Zm.33,2.93a.14.14,0,0,0,.16-.16l-.16-.16Zm.16,6.68h.17v-.16h-.17Zm.41-7.17c-.06,0-.08.06-.08.17H665C665,279.71,664.92,279.65,664.87,279.65Zm-.08,1.63h.49a.51.51,0,0,0-.33-.16Zm.16.65h.33a.15.15,0,0,0-.17-.16A.14.14,0,0,0,665,281.93ZM665,287s-.08.06-.08.17v.16a.14.14,0,0,0,.16-.16C665.11,287,665.09,287,665,287Zm3.5.82H669l1.79-.33h.33l.16.16v-.32l.82-1a3.69,3.69,0,0,1,.65-1,16.17,16.17,0,0,0,1.3-2.11v-.49a.51.51,0,0,0-.16-.33,2.44,2.44,0,0,0-.49-.32h-2v-.17l-.16.17h-.16l-.16-.17a.15.15,0,0,0-.17-.16,2,2,0,0,1-1.14.49.63.63,0,0,1-.48-.16q-.16-.33-.33-.33v.49h-1.14l-.16.49-.33.32h.17v.66c0,.11-.06.16-.17.16.11,0,.17.05.17.16s-.06.33-.17.33h-.16l-.33.32-.49.49c-.11,0-.21.11-.32.33a6.72,6.72,0,0,0-.33.81.47.47,0,0,0-.16.33l-.16.49c0,.21.05.32.16.32Zm-2.85,10.58s-.08.06-.08.16v.17a.15.15,0,0,0,.17-.17C665.77,298.44,665.74,298.38,665.68,298.38Zm.74-15.47a.14.14,0,0,0,.16.16v-.32A.14.14,0,0,0,666.42,282.91Zm0,.65c0,.11.05.17.16.17v-.17Zm.16,25.08a.14.14,0,0,0,.16-.16l-.16-.17Zm.49-25.89c0-.11-.11-.16-.33-.16C666.74,282.69,666.85,282.75,667.07,282.75Zm-.16.81c0,.11.05.17.16.17v-.17Zm1.3,22.8a.16.16,0,1,0,.16-.16A.14.14,0,0,0,668.21,306.36Zm1,1.71c0-.05-.06-.08-.17-.08h-.16a.14.14,0,0,0,.16.16C669.13,308.15,669.19,308.12,669.19,308.07Zm0-.41h.16v-.16A.14.14,0,0,0,669.19,307.66Zm.16-15a.14.14,0,0,0,.16.16v-.32A.14.14,0,0,0,669.35,292.68Zm0,.16V293c.11,0,.16-.06.16-.17Zm.32,14.82h.17v-.16C669.73,307.5,669.67,307.55,669.67,307.66Zm.25-2.44c-.06,0-.08.06-.08.16H670C670,305.28,670,305.22,669.92,305.22Zm.41-23.37c0-.05-.06-.08-.17-.08v.16C670.27,281.93,670.33,281.91,670.33,281.85Zm-.17,24.51c0,.11.06.16.17.16v-.16Zm.65-2v-.32l-.16.16Zm.49-7.73c0-.05,0-.08-.16-.08v.16C671.25,296.75,671.3,296.73,671.3,296.67Zm1,8.06a.14.14,0,0,0-.16.16h.16Zm.65-2.12c0,.11.05.17.16.17v-.17Zm3.42-11.56a2.71,2.71,0,0,0,1.3-.49,2.32,2.32,0,0,0,.65-.48.66.66,0,0,0,.17-.49v-.16a.48.48,0,0,0-.17-.33l-.32-.33a1.41,1.41,0,0,0-.49-.16l-2,.16c-.76.11-1.2.39-1.31.82C674.23,290.56,674.94,291.05,676.35,291.05Zm-2,12.7v-.16h-.17Zm.48-8.95h.17v-.33h-.17Zm.57-11.56c-.05,0-.08.05-.08.16v.16c.11,0,.17-.05.17-.16S675.51,283.24,675.45,283.24Zm.09,31.75h.16v-.16A.14.14,0,0,0,675.54,315Zm.32-31.59-.16.16H676Zm-.16,11.4a.14.14,0,0,0,.16.16v-.16Zm0,4.72a.14.14,0,0,0,.16.16v-.32A.14.14,0,0,0,675.7,299.52ZM676,284.7h-.16a.14.14,0,0,0,.16.16Zm-.16,14.49c0,.11,0,.17.16.17a.15.15,0,0,0,.17-.17A.15.15,0,0,0,676,299,.14.14,0,0,0,675.86,299.19Zm0,9.12c0,.11,0,.17.16.17Zm0,6.52h.33a.15.15,0,0,0-.17-.17C675.91,314.66,675.86,314.72,675.86,314.83Zm2.61-27a2.33,2.33,0,0,0,1.95-1.31l.65-1.14.82-.81c1.3,0,2-.81,2-2.44,0-.43-.27-.65-.81-.65s-1.2.05-2.28.16l-2.12.16c0,.11-.11.16-.33.16h-.81c-.65,0-1,.22-1,.66a2.64,2.64,0,0,0,.33,1.14,2,2,0,0,1,.49,1,.52.52,0,0,1-.33.49l-.32.33-.33.32-.16.33-.17.16c0,.87.22,1.3.66,1.3Zm-1.63,26.86h.32a.16.16,0,1,0-.32,0Zm.49-38.26h.16v-.16h-.16Zm.24,30.94c-.06,0-.08.05-.08.16h.16C677.65,307.39,677.62,307.34,677.57,307.34Zm2.36-14.66c0,.11.06.16.17.16v-.16Zm2.77-6.84c0,.11,0,.17.16.17v-.17Zm.73,8.14s-.08.06-.08.17v.16c.11,0,.17-.05.17-.16S683.49,294,683.43,294Zm.49-9.77s-.08.06-.08.17v.16a.14.14,0,0,0,.16-.16C684,284.27,684,284.21,683.92,284.21Zm.08,11.24c0,.11.06.16.17.16a.16.16,0,1,0,0-.32C684.06,295.29,684,295.34,684,295.45Zm.33.32c0,.11,0,.17.16.17v-.33A.14.14,0,0,0,684.33,295.77Zm1.63,1.15h-.17v.16Zm.49,9.28a.14.14,0,0,0,.16.16V306C686.5,306,686.45,306.09,686.45,306.2Zm.24-11.4c-.06,0-.08.05-.08.16h.16C686.77,294.85,686.74,294.8,686.69,294.8Zm.41-14.17c-.22,0-.33.06-.33.16h.33Zm.49,28.66h.32l-.32-.16Zm1.46-21.49h-.16V288h.16Zm.9,23.12c-.06,0-.09.05-.09.16H690C690,311,690,310.92,690,310.92Zm.57-23.61a.16.16,0,0,0,.32,0ZM694.1,309a.14.14,0,0,0,.16.16V309Z" transform="translate(-61.65 -274.28)"/><path class="cls-1" d="M703.05,298.06h-.16l-.33-.33a2.47,2.47,0,0,0-.48-.65c-.44-.76-.76-1.36-1-1.79,0-.11,0-.17.16-.17a.7.7,0,0,1,.49-.16.51.51,0,0,1,.33.16l1.46,1a1.14,1.14,0,0,1,.81.49l.17.16a.47.47,0,0,0,.16.33.47.47,0,0,1,.33.16l.32.16h.33a.48.48,0,0,0,.32.17l1.63,1.46v1.14l-.16.49-.33.33a.63.63,0,0,1-.16.48c-.65.87-1.25,1.31-1.79,1.31a1,1,0,0,1-1-.65.66.66,0,0,1-.16-.49l-.16-.65-.49-1.31a1.18,1.18,0,0,1-.16-.49l-.17-.32v-.33a.43.43,0,0,1-.16-.32Zm6.19-14.17h-.32a1.46,1.46,0,0,0-.66.16.49.49,0,0,0-.32.16.48.48,0,0,1-.33.17.66.66,0,0,1-.49.16.14.14,0,0,1-.16-.16l-.16-.17-.49.17.16.16c0,.11-.16.22-.49.32a2.72,2.72,0,0,0-.81.17,10.78,10.78,0,0,1-1.79.16c-.33,0-.76-.33-1.3-1a3.52,3.52,0,0,1-.82-1.62v-.17a.15.15,0,0,1,.16-.16h.33l.33.16h1a.29.29,0,0,0,.33.33c0-.43.38-.65,1.14-.65h1.79a1.28,1.28,0,0,0,.49-.17l1-.16c.32,0,1,0,2-.16h.49l.81-.16v.16l.33-.33V281a1.88,1.88,0,0,1,.32-.49.66.66,0,0,1-.16-.49v-.81a1.17,1.17,0,0,1-.49-.82v-.49c-.11-.1-.22-.21-.32-.32l-.33-.33-.33-.32v-.49c0-.11.11-.16.33-.16h.33a.48.48,0,0,0,.32-.17,1.41,1.41,0,0,1,.49-.16,1,1,0,0,0,.65.16,2.52,2.52,0,0,0,.65.49h.49l.82.33a5.73,5.73,0,0,1,.65.48,1.58,1.58,0,0,1,.65,1.31V279q-.16.33-.33.33v.49a.66.66,0,0,1-.16.49h.32a1.22,1.22,0,0,1,.49.16l.66.16.81-.16h.16c.33,0,.49.22.49.65a.51.51,0,0,1-.16.33.47.47,0,0,0-.33.16l-.32.16a1.22,1.22,0,0,1-.49.16h-.16a.48.48,0,0,0-.33.17l-.49.32-.16-.16a8.2,8.2,0,0,1-.17,1.63l-.16.32v.33a1.22,1.22,0,0,0-.16.49,1.86,1.86,0,0,1-.81,1.46,1.81,1.81,0,0,1-1.14.66.86.86,0,0,1-1-1v-.49a6.3,6.3,0,0,1-.33-.82v-1a.51.51,0,0,1-.48-.33l-.17-.32A2.43,2.43,0,0,1,709.24,283.89Zm-4.56,30.94a8.15,8.15,0,0,0-1.3-4.89l-.49-.32a.66.66,0,0,1-.16-.49c0-.11.1-.22.32-.33l1.63-.16c.33-.11.49-.22.49-.33a1.38,1.38,0,0,1,.49-1l.49-.33v-.81a.47.47,0,0,1,.16-.33l.16-.32a1.28,1.28,0,0,0,.17-.49l.16-.82.32-.32.17-.33.16-.32v-.82a1.39,1.39,0,0,0,.16-.65q.17-.33.33-.33a3.1,3.1,0,0,1,.65-1.62.52.52,0,0,0,.33-.49l.16-.49a1.22,1.22,0,0,1,.16-.49l.49-.81.65-1.14a3.91,3.91,0,0,1,.49-1l.81-1.79q.5-1.47,1.14-1.47l.17.17v.32a2.72,2.72,0,0,1-.17.82l-.49,1-.16.65-.49.82v.16a.66.66,0,0,0-.16.49v.65a5.87,5.87,0,0,0-1,2.93l-1,2.28a7.67,7.67,0,0,0-.17,1.79,1.39,1.39,0,0,1-.16.65,1.18,1.18,0,0,1-.16.49l-.16.33V306l-.49,2.12a5.21,5.21,0,0,1-.17,1.3c0,.44,0,.65-.16.65v.66a1,1,0,0,1-.32.65v1c0,.22-.06.33-.17.33h-.16l.16.33a.65.65,0,0,1-.16.48.51.51,0,0,1-.16.33l-.33.33c-.11.1-.22.21-.32.32a.48.48,0,0,0-.17.33l-.16.48-.33.33-.32-.49q0,.17-.33.33l-.16.16Zm2.61-22.31a1.28,1.28,0,0,0-.17-.49l-.32-.49a2.86,2.86,0,0,0-.49-1.14l-.33-.65c-.21-.22-.32-.38-.32-.49l-.49-1.14-.65-1.3a.48.48,0,0,1-.17-.33.15.15,0,0,1,.17-.16.45.45,0,0,1,.32-.16l2.61,1.79a10.29,10.29,0,0,1,1.79,1.3c.87.76,1.3,1.36,1.3,1.79a2.88,2.88,0,0,1-.49,1.79,1.6,1.6,0,0,0-.81.66l-.32.16-.33.32a.66.66,0,0,1-.49.17c-.22,0-.43-.17-.65-.49a1.59,1.59,0,0,1-.33-.82Zm-.74,17.91s-.08.06-.08.16h.17C706.64,310.49,706.61,310.43,706.55,310.43Zm8.23,4.4a7.73,7.73,0,0,0-.16-1.14v-2.61l.32-.32a1.66,1.66,0,0,1-.32-.49v-.82a1.47,1.47,0,0,0-.17-.65l.17-.32v-.82l-.17-.49V306c0-.21.06-.32.17-.32l-.17-.49v-.49l.17-.65v-.16l-.33-.17.16-.32v-.65a.66.66,0,0,0-.16-.49l.16-.33a.14.14,0,0,0-.16-.16,1.88,1.88,0,0,1-.49-.33h-.16a.48.48,0,0,0-.33.17l-.32.16-.33.16h-.49a.43.43,0,0,1-.32-.16V302l-.17.17c-.32,0-.48-.06-.48-.17s.1-.27.32-.49l.33-.16.32-.32,1-.65a1.91,1.91,0,0,0,.65-.66l.16.17a.48.48,0,0,0,.17-.33.47.47,0,0,1,.16-.33c0-.1.11-.16.33-.16l1-.81a4.12,4.12,0,0,1,1-1l1.79-1.3a2.52,2.52,0,0,1,.65-.49,1.22,1.22,0,0,0,.16-.49,5.38,5.38,0,0,0-.32-1.46c-.33-.76-.6-1.14-.82-1.14a1.42,1.42,0,0,0-.65.16,2.18,2.18,0,0,0-.49.32l-1.46,1.31a.47.47,0,0,0-.33.16,1.65,1.65,0,0,0-.48.33l-.49.48-.33.33c-.54,0-.81-.22-.81-.65v-.16l.32-.17.33-.32h.16a1.91,1.91,0,0,1,.65-1.31l.49-.65c.11-.21.22-.43.32-.65v-.16a.48.48,0,0,1,.17-.33l.49-.49.16-.16a3.3,3.3,0,0,0,1-1.95,1.22,1.22,0,0,1,.16-.49l.16-.49.17-.65v-.33c.1-.54.48-.81,1.13-.81q0,.17.33.33a1.41,1.41,0,0,0,.49.16c0,.11.11.22.33.32a.45.45,0,0,0,.32.17,1.88,1.88,0,0,1,.33.49.47.47,0,0,0,.16.32l.49.65h1.3v-.32a1.45,1.45,0,0,0,.16-.65,2.66,2.66,0,0,0-.16-.82v-2.77c0-.21-.22-.32-.65-.32h-.49c-1.3,0-1.95-.27-1.95-.82a1.06,1.06,0,0,1,.49-.49h.81l.32-.16h.49a1.55,1.55,0,0,0,1.14-.32V277.7l-.16-.16v-.17a1,1,0,0,0-.16-.65l-.49-.32-.33-.16a.52.52,0,0,1,.33-.49,1.43,1.43,0,0,1,.65-.17,6.9,6.9,0,0,1,1.3.17h.17l.16.16h.32l.66.16q0,.33.48.33l.33-.16.32.32.49.16c.22,0,.33.06.33.17a1.39,1.39,0,0,1,.16.65l-.16.32a1.79,1.79,0,0,1-.33.66.28.28,0,0,0-.32.32H726a.47.47,0,0,0-.32.16l-.17.49.17,1.47c.1.43.48.65,1.14.65,0-.11.21-.16.65-.16a.68.68,0,0,0,.49-.17h1.46a1.32,1.32,0,0,0,.82-.16l.32-.33v-.48q0-.17.33-.33l.32-.65a.52.52,0,0,1,.49-.33.66.66,0,0,1,.49.17l.49.32,1.3,1.3a.73.73,0,0,1,.82.82c0,.22-.11.32-.33.32h-.65c-.11.22-.44.33-1,.33v-.33l-.16.33a1,1,0,0,0-.65-.16l-.33.16-.32.16h-.49l-1.14-.16-.17.33h-.65l-.81.16h-1c-.22,0-.32-.06-.32-.16a1.44,1.44,0,0,0-1.63,1.62l-.16.33.16.32v.33a.47.47,0,0,1,.16.33c-.11,0-.22.11-.32.32V286l-.17.16v.16l-.49.49a1.42,1.42,0,0,0-.16.65.29.29,0,0,0,.33.33,1.34,1.34,0,0,0,.49-.17l.32-.16.33-.32A.45.45,0,0,1,726,287h.16a3.14,3.14,0,0,1,1.15-1.46,1.19,1.19,0,0,1,.48.16,13.33,13.33,0,0,1,1.31,1.14l1,1V288a2.92,2.92,0,0,1-.81,1.47l-1.14,1H728l-1.31,1.3a5.6,5.6,0,0,1-2.6,1.63.47.47,0,0,1,.16.33l-.32.16a.66.66,0,0,0-.17.49.88.88,0,0,0,.65,1l1.31.32.16.16a.48.48,0,0,0,.32.17l.17-.17a1.9,1.9,0,0,0,.81.49,1.28,1.28,0,0,1,.49.17l.82.16h.48a2.36,2.36,0,0,1,.65.49.51.51,0,0,0,.33-.16h.82a.47.47,0,0,0,.32.16h1l.16.16h.49a1.42,1.42,0,0,0,.65.16h1.14a3.6,3.6,0,0,1,1.14.17h2.12c.32,0,.49.11.49.32a.91.91,0,0,1-.33.65l-.49.17-.49.48-.65.82a1.88,1.88,0,0,1-.49.33,1.54,1.54,0,0,1-1.14.81h-.16l-.33.16a1.8,1.8,0,0,0-.48.33.48.48,0,0,1-.33-.17q0,.16-.33.33a.43.43,0,0,1-.32.16,3.67,3.67,0,0,1-2-.49h-.66l.33.33a.47.47,0,0,1,.16.33v.32c0,.11.06.16.17.16a2.45,2.45,0,0,1-.33,1v.16l-.16.17c0,.11-.06.16-.17.16a1.22,1.22,0,0,0-.16.49l.16.16.17.65V306a1.34,1.34,0,0,0-.17.49v2a10,10,0,0,0,.33,1.62,3,3,0,0,1-.16,1.15l-.66.65a2.93,2.93,0,0,1-1.13,1.62,3.07,3.07,0,0,1-2,.82c-.65,0-1-.44-1-1.3v-1c0-.33,0-.49-.16-.49a5.52,5.52,0,0,0-1.79-.16H720.8c-.65.1-1.19.21-1.63.32s-.87.43-1,.65v.33a3.07,3.07,0,0,1-.82,2,2.72,2.72,0,0,1-1.79,1,.7.7,0,0,1-.49-.16A1.68,1.68,0,0,1,714.78,314.83Zm-2.45-35.34v.16l.17.17a.14.14,0,0,0,.16.16l-.16-.49Zm1.14,10.75a2.61,2.61,0,0,1,.17-.81c.21-.33.43-.49.65-.49s.16.11.16.32v.17a1.66,1.66,0,0,1-.32.81,3.33,3.33,0,0,1-.66.81l-.16.33-.16.32H713l-.17.33v-.49a1.47,1.47,0,0,1,.17-.65c.21-.33.43-.49.65-.49h.16l-.16-.16Zm-.48-11.4a.14.14,0,0,0,.16.16v-.32A.14.14,0,0,0,713,278.84Zm.48,1h.17l-.17-.17Zm2.94,21.33.32.32q.16.33.33.33l.32.16.65.17h.33l.81-.33h.33l.81.16a7.21,7.21,0,0,0,2-.32,6.49,6.49,0,0,0,3.25-.82.45.45,0,0,0,.17-.32.43.43,0,0,1,.32-.16h.16a.48.48,0,0,0,.17-.33c0-.11-.22-.38-.65-.82l-1-1-1.3-.49-.82-.65a2,2,0,0,0-1.14-.49,4.54,4.54,0,0,0-1.79.81,12.18,12.18,0,0,0-1.79,1.47,1.22,1.22,0,0,0-.49.16l-.65.33-.65.32a.47.47,0,0,0-.16.33C715.92,300.66,716.08,301,716.41,301.15Zm.16,3.09a.16.16,0,1,0,.16-.16A.14.14,0,0,0,716.57,304.24Zm1.14.16v.17a.15.15,0,0,0,.16-.17Zm.49,4.89.16.16.49.49a12.65,12.65,0,0,0,2.11-.16,3.3,3.3,0,0,0,1-.16h1c1.84,0,2.77-.6,2.77-1.79l-.17-.49.17-.49v-3.58l-.33-.17h-.16l-.16-.16h-2l-1.63.16a1.28,1.28,0,0,1-.49.17l-.48-.17c-1.53,0-2.28.55-2.28,1.63v2.61a3.6,3.6,0,0,1-.17,1.14V309Zm1.46-16.77a3.21,3.21,0,0,0,1.47.32l.32-.32.82-.65a15.86,15.86,0,0,0,1.46-1.63,1.73,1.73,0,0,0-.65-.33h-1.63c-.22-.1-.32-.21-.32-.32a.52.52,0,0,1-.49.32l-.33.17h-.16l-.16.16a1.51,1.51,0,0,0-1.14.81A1.61,1.61,0,0,0,719.66,292.52Zm2.93-4.24v.17a.15.15,0,0,0,.17-.17Zm1.31-6.18h.32a.48.48,0,0,0-.32-.17Zm8.79-1.47a.14.14,0,0,0,.16.16v-.32A.14.14,0,0,0,732.69,280.63ZM735.78,300a.14.14,0,0,0-.16.16Zm2.12-2.28c-.11,0-.16.11-.16.33h.16Z" transform="translate(-61.65 -274.28)"/><path class="cls-1" d="M743.27,311.57v-.49l5.21-1.63a3.53,3.53,0,0,0,.82-2.6v-3.42l-.33-4.07-.16-3.91a1.07,1.07,0,0,0-.33-.81,6.84,6.84,0,0,0-1.3.16L746,295a11.46,11.46,0,0,0-1.3.33H743.6c-1.2,0-1.79-.65-1.79-2a.14.14,0,0,1,.16-.16l.16-.16h1.47a3.32,3.32,0,0,1,1.3-.17l1.3-.16H748l.32.16h.16c.22,0,.44-.37.66-1.14a6.93,6.93,0,0,1,.16-1.3v-1a6.49,6.49,0,0,0-.16-1.47v-3.75a12,12,0,0,0-.33-2.93,11.18,11.18,0,0,0-.16-2.44,2.05,2.05,0,0,0-.49-1,.15.15,0,0,0-.16-.16h-.33c-.33,0-.49-.05-.49-.16.22-.65.87-1,2-1a2,2,0,0,1,1.14.33l.32.32.65.33a1.22,1.22,0,0,1,.49.16l.33.33h.49l.32.16a1,1,0,0,1,.65.65,2.55,2.55,0,0,1-.16.81L753,280l-.65.65a2.18,2.18,0,0,1-.32.49v.81l-.33,3.1a6.84,6.84,0,0,0,.16,1.3l.17.49v.65l-.17,1.3a6.63,6.63,0,0,0,.49,3.26c.22.44.76.65,1.63.65a.57.57,0,0,0,.65-.65l.33-.33a.69.69,0,0,1,.49-.16,3.45,3.45,0,0,1,1.3.65q.81.66.81,1.14a5.14,5.14,0,0,1-1.46.65,5.75,5.75,0,0,1-2.12.33c-.87,0-1.41.22-1.63.65a2.29,2.29,0,0,0-.16,1v2.12a7.38,7.38,0,0,0,.16,1.46l.17,4.07-.17,1.47v.49a1.25,1.25,0,0,1,.17.48c.21.44.48.65.81.65l.65-.32a1.89,1.89,0,0,0,1.3-.65l.82-.33a2.87,2.87,0,0,1,.81-.16h.16v.16a.48.48,0,0,1,.17.33.52.52,0,0,1-.33.49h-.65a3.76,3.76,0,0,1-1,.65,3.86,3.86,0,0,1-1,.65,5,5,0,0,0-1.63,1.14,4.58,4.58,0,0,0-1,.81l-.33.33-.16.16-.16.16a1.28,1.28,0,0,0-.49.17l-2.28,1.63-.32.16-.49.32a3.33,3.33,0,0,0-1.14.66l-.33.32-.16.16-.17.17a1.51,1.51,0,0,1-.64.16.51.51,0,0,1-.49-.33.46.46,0,0,1-.17-.32V313l-.16-.17Zm5.87-17.42a.63.63,0,0,0,.48.16.52.52,0,0,0-.48-.33ZM761,313l-.32-.49-.66-.65v-1l-.16-3.42a.14.14,0,0,1-.16-.16V307a1.8,1.8,0,0,1-.16-.81,3.06,3.06,0,0,1-.17-1l.17-.49a.48.48,0,0,0-.17-.33l-.32-2.6-.16-.33c-.11-.21-.22-.32-.33-.32a3,3,0,0,0-1,.16l-.32.16-.33.33-.65.49a1.42,1.42,0,0,1-.65.16c-.11,0-.33-.16-.65-.49l-.33-.49a2.36,2.36,0,0,1-.49-.65.51.51,0,0,1,.33-.48l.49-.17a.47.47,0,0,0,.32-.16l1.79-1.47a1.5,1.5,0,0,0,.82-1l.16-.49a.7.7,0,0,1,.16-.49V294l-.16-.48-.16-.33.32-1.63V287.8h-.16v-.65a6.35,6.35,0,0,0-.49-1.31c0-.1.11-.21.33-.32a.66.66,0,0,1,.49-.17,2.68,2.68,0,0,1,1.14-.32H760a2.18,2.18,0,0,1,.49.32l1,.49.49.33a.47.47,0,0,1,.16.32,1.78,1.78,0,0,1-.32.66l-.49.48a.87.87,0,0,0-.65,1v.16c0,.22,0,.33.16.33v1.95a.67.67,0,0,0-.16.49v1a1.77,1.77,0,0,0,.16.81c.11.55.38.82.81.82a2.5,2.5,0,0,0,1.47-.65c.11,0,.27-.11.49-.33l.32-.33c.76-.21,1.14-1,1.14-2.44v-2.6l-.16-1.79a2.61,2.61,0,0,1,.16-.66v-.49c-.11-.1-.16-.37-.16-.81v-1.46a14.93,14.93,0,0,0-.16-1.63l-.33-.65v-.66a4.76,4.76,0,0,0-1.3-3.25,1.17,1.17,0,0,1,.81-.49,3,3,0,0,1,1-.16,6.35,6.35,0,0,1,2.44.65c1.09.43,1.63.92,1.63,1.46a1.33,1.33,0,0,1-.49.82,1.42,1.42,0,0,0-.49,1l-.16.82v2.77a4.45,4.45,0,0,1,.33,1.95v2c.21.86.49,1.3.81,1.3a1.59,1.59,0,0,0,.82-.33.47.47,0,0,0,.32-.16l.33-.16a4,4,0,0,0,2.11-2.28l.49-2.45a6.72,6.72,0,0,1,.33-.81,21.23,21.23,0,0,1,3.25,2.28,1.59,1.59,0,0,1-.48,1.14H776v.16c-.11,0-.16.06-.16.17a.43.43,0,0,0-.16.32q-.16.82-.33,1.95v1.8a1.71,1.71,0,0,0,.33,1V295a1.66,1.66,0,0,0,.32.49v1.47l.17,1.14v4.07a11.45,11.45,0,0,1-.49,1.14l-.49,1.13-1,1-.81.49a1.22,1.22,0,0,1-.49.16c-.11,0-.22-.1-.33-.32a1,1,0,0,1-.48-.49l-.82-1.14a1.12,1.12,0,0,0-1-.81h-1c-.33,0-.49.11-.49.32l.16,1a8.19,8.19,0,0,1,.16,1.63l-.16,1.46v.49c0,.11-.11.27-.32.49l-.66.65-.65.65a1.22,1.22,0,0,1-.49.16c-.32,0-.54-.21-.65-.65a.63.63,0,0,1-.16-.48v-.49l.16-.65a4.46,4.46,0,0,0-.32-1.63v-4.07c0-.44-.06-.66-.17-.66V299c0-.11.11-.22.33-.32s.33-.22.33-.33-.11-.22-.33-.32l-.33-.17v-2.12l-.16-.65a2.33,2.33,0,0,0-.32-.48.15.15,0,0,0-.17-.17c-.11,0-.27.11-.49.33a2.07,2.07,0,0,0-.81.49l-.81.81c-.22.22-.33.38-.33.49s-.11.22-.33.33l-.48.48a1.78,1.78,0,0,0-.65,1.14v5.54l.16.32.16,2.77.49,1.47a4.11,4.11,0,0,0,.32,1.46,2,2,0,0,1,.49,1,1.48,1.48,0,0,0,1.31,1l.81-.16h.65l1.47-.17h1l.66-.16a1.14,1.14,0,0,1,.48-.16h.33a30.23,30.23,0,0,0,3.09-.16,15.06,15.06,0,0,0,3.59-.66,1.9,1.9,0,0,0,2-1.3l.49-1,.65-1.79a.47.47,0,0,1,.16-.32h.33a10.09,10.09,0,0,0,1.46,3.42,9.19,9.19,0,0,0,.49.81l.49.65a2.85,2.85,0,0,1,.82,1.63c0,.65-.77,1.14-2.28,1.47a13.85,13.85,0,0,0-2,.16h-1.63a1,1,0,0,1-.65.16h-.81a10.11,10.11,0,0,1-2.77.33H770.3l-2.44.32a19.43,19.43,0,0,1-2.44.16l-2.77-.81-.33-.16Zm-4.8-7.33c-.06,0-.08.05-.08.16V306a.14.14,0,0,0,.16-.16C756.3,305.76,756.27,305.71,756.22,305.71Zm11.48-16.28a.43.43,0,0,0,.49.48v-.48Zm1,4.72v4.07a.66.66,0,0,0,.16.49l.16.65a6.55,6.55,0,0,1,.16,1.14v1.63a.58.58,0,0,0,.66.65,1.47,1.47,0,0,0,.65-.17l.48-.16c.66-.11,1-.32,1.15-.65a.7.7,0,0,0,.16-.49l.16-1.46v-1.47l-.16-2.61-.16-4.72v-1.46c0-.76-.28-1.14-.82-1.14a1.1,1.1,0,0,0-.81.32q-.16,0-.33.33c-.22.11-.32.22-.32.33a2.61,2.61,0,0,0-.66.16c-.21.22-.38.32-.48.32s-.17.11-.17.33v1.46a.41.41,0,0,1,0,.66v.32Z" transform="translate(-61.65 -274.28)"/><path class="cls-1" d="M794.24,304.08a2.66,2.66,0,0,1,2,.81l1.63,1.63a2.71,2.71,0,0,1,.82,2v2.28a2.87,2.87,0,0,1-.82,2.11l-1.63,1.63a2.66,2.66,0,0,1-2,.81H792a2.89,2.89,0,0,1-2.12-.81l-1.62-1.63a2.83,2.83,0,0,1-.82-2.11v-2.28a2.67,2.67,0,0,1,.82-2l1.62-1.63a2.89,2.89,0,0,1,2.12-.81Zm-2,1.47a2.13,2.13,0,0,0-1.55.56l-1.22,1.23a2,2,0,0,0-.65,1.46v1.63a1.94,1.94,0,0,0,.65,1.55,12.77,12.77,0,0,1,1.22,1.22,2,2,0,0,0,1.55.65h1.63a2,2,0,0,0,1.46-.65c.43-.44.84-.84,1.22-1.22a2.1,2.1,0,0,0,.57-1.55V308.8a2.15,2.15,0,0,0-.57-1.46,14.16,14.16,0,0,0-1.22-1.23,2.21,2.21,0,0,0-1.46-.56Z" transform="translate(-61.65 -274.28)"/></svg>